<?xml version="1.0" encoding="UTF-8"?>
<svg version="1.1" xmlns="http://www.w3.org/2000/svg" width="381" height="354">
<path d="M0 0 C125.73 0 251.46 0 381 0 C381 116.82 381 233.64 381 354 C255.27 354 129.54 354 0 354 C0 237.18 0 120.36 0 0 Z " fill="#FEFEFE" transform="translate(0,0)"/>
<path d="M0 0 C2.31619984 1.14646073 4.52039917 2.3294755 6.75 3.625 C7.77287109 4.20954956 7.77287109 4.20954956 8.81640625 4.8059082 C16.34902215 9.14194444 23.78366834 13.64564249 31.22680664 18.1328125 C39.50870896 23.12216424 47.84161436 28.01736013 56.20043945 32.87646484 C63.60401791 37.18125088 70.98317345 41.52551743 78.35131836 45.890625 C84.24667339 49.38043131 90.15412731 52.84880328 96.06970215 56.3041687 C101.02079003 59.19667413 105.96583999 62.09932196 110.90710449 65.00857544 C114.54541806 67.14959281 118.19428049 69.2715395 121.84765625 71.38671875 C123.50315713 72.36104021 125.15815099 73.33622399 126.8125 74.3125 C127.93253418 74.95082764 127.93253418 74.95082764 129.07519531 75.60205078 C131.08203125 76.80078125 131.08203125 76.80078125 134 79 C134 83 134 83 132.75341797 84.47290039 C132.17221191 84.92656982 131.59100586 85.38023926 130.9921875 85.84765625 C130.3425 86.36457031 129.6928125 86.88148437 129.0234375 87.4140625 C128.31445312 87.95804687 127.60546875 88.50203125 126.875 89.0625 C126.14796875 89.63613281 125.4209375 90.20976563 124.671875 90.80078125 C122.45656233 92.54524349 120.22927925 94.27344083 118 96 C116.79332418 96.94540756 115.58752426 97.8919347 114.3828125 98.83984375 C112.69704479 100.1656851 111.01111226 101.49128882 109.32324219 102.81445312 C104.57182937 106.54051813 99.83676628 110.28640362 95.125 114.0625 C94.06152344 114.90361328 94.06152344 114.90361328 92.9765625 115.76171875 C92.00203125 116.54675781 92.00203125 116.54675781 91.0078125 117.34765625 C90.42660645 117.81179932 89.84540039 118.27594238 89.24658203 118.75415039 C88.83520996 119.16528076 88.42383789 119.57641113 88 120 C88 120.66 88 121.32 88 122 C88.93457031 122.52207031 89.86914062 123.04414063 90.83203125 123.58203125 C98.47744469 127.86216008 106.09859679 132.18289204 113.6875 136.5625 C114.42137939 136.98442627 115.15525879 137.40635254 115.91137695 137.84106445 C117.38225088 138.69228332 118.84200126 139.56305202 120.28921509 140.4539032 C123.03510744 142.08724929 123.03510744 142.08724929 126.25550842 143.39880371 C130.25864945 145.33020091 132.81324089 146.87556573 136 150 C137.98303884 155.9642214 137.88416101 161.72958148 137.796875 167.96484375 C137.81073208 169.72549995 137.82814609 171.4861314 137.84893799 173.24671936 C137.87705542 176.92888497 137.8574403 180.60695286 137.8046875 184.28881836 C137.74180942 188.99114272 137.8051643 193.68187352 137.90552902 198.38320065 C137.96777223 202.01729318 137.95885116 205.64865007 137.92935944 209.28305244 C137.92441181 211.01454717 137.94200656 212.74626841 137.98329926 214.47727776 C138.24170657 227.55943141 138.24170657 227.55943141 134.55337524 231.57495499 C130.99611637 234.38451344 127.10196241 236.302737 122.96212769 238.10276222 C119.72847201 239.58144175 116.75869015 241.43984453 113.71875 243.28125 C112.52533024 243.98193688 111.33081175 244.68075882 110.13476562 245.37695312 C100.4359109 251.0415264 90.75137278 256.72449031 81.13671875 262.53125 C76.46744693 265.33305547 71.75904437 268.06806508 67.05664062 270.8137207 C65.808575 271.54244835 64.56052836 272.27120853 63.3125 273 C62.69060791 273.36314301 62.06871582 273.72628601 61.42797852 274.10043335 C52.65397641 279.22806939 43.93589894 284.43861702 35.26330566 289.73587036 C26.23742775 295.2468421 17.1985489 300.73555765 8.0625 306.0625 C6.78439453 306.82300659 6.78439453 306.82300659 5.48046875 307.59887695 C4.69414062 308.05222412 3.9078125 308.50557129 3.09765625 308.97265625 C2.42226807 309.36718994 1.74687988 309.76172363 1.05102539 310.16821289 C-1.46229847 311.18748374 -3.30897431 311.23860373 -6 311 C-8.734375 309.6015625 -8.734375 309.6015625 -11.75 307.625 C-12.91161191 306.87971729 -14.0744326 306.13631617 -15.23828125 305.39453125 C-15.8513916 305.00088379 -16.46450195 304.60723633 -17.09619141 304.20166016 C-20.33047466 302.16022105 -23.63432942 300.23973884 -26.9375 298.3125 C-28.38425221 297.46507866 -29.83086181 296.61741383 -31.27734375 295.76953125 C-32.03515137 295.32561035 -32.79295898 294.88168945 -33.57373047 294.42431641 C-38.05537248 291.79341487 -42.52706246 289.14566373 -47 286.5 C-54.33929133 282.15986524 -61.68584386 277.83242751 -69.03930664 273.51635742 C-72.7702746 271.3230005 -76.48713553 269.10862275 -80.19042969 266.86889648 C-87.63003753 262.37040806 -95.14961503 258.01919866 -102.6875 253.6875 C-113.24311661 247.62072917 -123.74249128 241.46802164 -134.13134766 235.11914062 C-135.74245761 234.15424279 -137.38996362 233.25059728 -139.04296875 232.359375 C-139.68878906 231.91078125 -140.33460938 231.4621875 -141 231 C-141 230.01 -141 229.02 -141 228 C-138.64601029 226.04186735 -136.30551755 224.26493574 -133.8125 222.5 C-128.40077721 218.56502221 -123.13127713 214.55695098 -118.0625 210.1875 C-113.86231956 206.57470843 -109.6100246 203.07194263 -105.2109375 199.703125 C-101.09209162 196.53030379 -97.0523186 193.2570828 -93 190 C-97.55109861 186.0248703 -102.62800596 183.24554104 -107.875 180.3125 C-109.76242278 179.24603671 -111.64913735 178.17831907 -113.53515625 177.109375 C-114.92565186 176.32143555 -114.92565186 176.32143555 -116.34423828 175.51757812 C-122.29291836 172.11833237 -128.15692434 168.57725314 -134 165 C-134.99805161 164.66407585 -134.99805161 164.66407585 -136.01626587 164.32136536 C-138.70766229 163.21624087 -140.11714313 162.24666295 -142 160 C-143.46349539 154.23580169 -143.5446979 148.46354894 -143.66015625 142.5390625 C-143.68402342 141.67976513 -143.70789059 140.82046776 -143.732481 139.93513107 C-143.85817899 135.3789605 -143.93710987 130.82479413 -143.97680664 126.26708984 C-144.01632226 122.51675717 -144.13389343 118.78222763 -144.32543945 115.03662109 C-145.82823867 85.07854848 -145.82823867 85.07854848 -139.67428589 76.91470337 C-133.83865355 71.84317467 -127.23346225 68.88542084 -120.04666138 66.18603516 C-116.0789666 64.6414508 -112.63516672 62.5887642 -109.05859375 60.30859375 C-106.85237238 59.01684495 -104.64535933 57.72644719 -102.4375 56.4375 C-101.22331886 55.7270887 -100.00920955 55.01655463 -98.79516602 54.3059082 C-93.04488129 50.94124241 -87.28963544 47.58515963 -81.53125 44.234375 C-71.34153374 38.30421492 -61.17875376 32.33727465 -51.0793457 26.25439453 C-45.27462812 22.75906816 -39.45424412 19.292496 -33.59887695 15.88256836 C-29.44168649 13.45749983 -25.32452258 10.9772211 -21.2265625 8.453125 C-20.23575684 7.84976318 -19.24495117 7.24640137 -18.22412109 6.62475586 C-16.27453434 5.43679145 -14.33182807 4.23744435 -12.39697266 3.02563477 C-11.50800293 2.48737061 -10.6190332 1.94910645 -9.703125 1.39453125 C-8.52218262 0.66520386 -8.52218262 0.66520386 -7.31738281 -0.07885742 C-4.41461951 -1.23268443 -2.95048916 -0.91677628 0 0 Z " fill="#12418A" transform="translate(196,20)"/>
<path d="M0 0 C2.434204 0.85264321 4.52874413 1.95199324 6.77148438 3.22802734 C8.1391394 4.00267334 8.1391394 4.00267334 9.53442383 4.79296875 C11.00141724 5.63480713 11.00141724 5.63480713 12.49804688 6.49365234 C13.51664795 7.07421387 14.53524902 7.65477539 15.5847168 8.25292969 C30.06772221 16.53435528 44.41403293 25.03948242 58.62573242 33.77783203 C64.47001604 37.36519025 70.36611951 40.85848324 76.29223633 44.30883789 C77.58374408 45.06241813 78.87280989 45.82020187 80.15917969 46.58251953 C81.5631234 47.41259864 82.97487851 48.22952273 84.39160156 49.03759766 C85.12540039 49.46911133 85.85919922 49.900625 86.61523438 50.34521484 C87.62239502 50.92650146 87.62239502 50.92650146 88.64990234 51.51953125 C89.37910889 52.12547119 89.37910889 52.12547119 90.12304688 52.74365234 C90.12304688 53.73365234 90.12304688 54.72365234 90.12304688 55.74365234 C88.22194303 57.41807449 86.35747351 58.89247585 84.31054688 60.36865234 C79.05139648 64.23669655 79.05139648 64.23669655 74.05664062 68.43505859 C73.12980469 69.25876953 72.20296875 70.08248047 71.24804688 70.93115234 C70.01441406 72.06617187 70.01441406 72.06617187 68.75585938 73.22412109 C66.12304688 74.74365234 66.12304688 74.74365234 62.73242188 74.72802734 C58.77642132 73.6491181 55.65475364 72.00896437 52.24804688 69.80615234 C50.91533048 68.97573433 49.58197364 68.14634345 48.24804688 67.31787109 C47.56484375 66.88909668 46.88164062 66.46032227 46.17773438 66.01855469 C42.23100757 63.56967073 38.20467792 61.25528449 34.1887207 58.92236328 C29.64426475 56.2671296 25.1603415 53.52990483 20.69726562 50.73974609 C19.58013184 50.04896973 18.46299805 49.35819336 17.31201172 48.64648438 C15.09156302 47.27182915 12.87932338 45.88380873 10.67626953 44.48144531 C9.65452637 43.85254395 8.6327832 43.22364258 7.58007812 42.57568359 C6.21846558 41.72067261 6.21846558 41.72067261 4.8293457 40.84838867 C1.45539527 39.47111076 -0.39764815 39.80076668 -3.87695312 40.74365234 C-6.83644106 42.21768653 -6.83644106 42.21768653 -9.93945312 44.24365234 C-11.246602 45.0558781 -12.55535296 45.86552827 -13.86523438 46.67333984 C-14.62787598 47.14481445 -15.39051758 47.61628906 -16.17626953 48.10205078 C-19.40300655 50.06341217 -22.65838661 51.97381192 -25.91992188 53.87646484 C-26.54870743 54.2433844 -27.17749298 54.61030396 -27.82533264 54.98834229 C-30.38523755 56.48107829 -32.94583497 57.9726146 -35.50759888 59.4621582 C-37.3349934 60.52538272 -39.16081831 61.59125826 -40.98632812 62.65771484 C-41.8670121 63.16924103 -41.8670121 63.16924103 -42.76548767 63.69110107 C-47.48499761 66.45399451 -52.00856094 69.46311824 -56.48339844 72.60449219 C-59.50190176 74.04108302 -60.74411974 73.80695815 -63.87695312 72.74365234 C-66.15356445 71.60791016 -66.15356445 71.60791016 -68.45898438 70.19677734 C-69.30912109 69.68115234 -70.15925781 69.16552734 -71.03515625 68.63427734 C-71.91107422 68.09287109 -72.78699219 67.55146484 -73.68945312 66.99365234 C-74.55376953 66.46771484 -75.41808594 65.94177734 -76.30859375 65.39990234 C-81.52253068 62.22038458 -86.70341403 58.9883807 -91.87695312 55.74365234 C-90.65875613 52.08906136 -89.81713967 51.83951871 -86.54882812 49.98583984 C-85.6186084 49.45144287 -84.68838867 48.9170459 -83.72998047 48.36645508 C-82.19398193 47.50129272 -82.19398193 47.50129272 -80.62695312 46.61865234 C-78.42607562 45.35755586 -76.22557092 44.09580858 -74.02539062 42.83349609 C-72.84798716 42.16144889 -71.67057821 41.48941129 -70.49316406 40.81738281 C-64.38350125 37.32227499 -58.32067333 33.74668255 -52.25195312 30.18115234 C-51.01917089 29.45760299 -49.78634219 28.7341328 -48.5534668 28.01074219 C-46.14101116 26.59517716 -43.72884844 25.17911502 -41.31689453 23.76269531 C-38.09214683 21.86995837 -34.86549808 19.98049885 -31.63867188 18.09130859 C-29.73860712 16.97597696 -27.83885336 15.86011528 -25.93945312 14.74365234 C-25.05128906 14.22262939 -24.163125 13.70160645 -23.24804688 13.16479492 C-19.29082396 10.82756014 -15.38099338 8.45158005 -11.55273438 5.90771484 C-10.90232178 5.47587891 -10.25190918 5.04404297 -9.58178711 4.59912109 C-7.89706842 3.46623488 -6.22614829 2.31289985 -4.55664062 1.15771484 C-1.87695312 -0.25634766 -1.87695312 -0.25634766 0 0 Z " fill="#FAFBFD" transform="translate(192.876953125,50.25634765625)"/>
<path d="M0 0 C2.73824301 0.75531655 4.8238083 1.75155512 7.27758789 3.1730957 C8.14246826 3.67035156 9.00734863 4.16760742 9.8984375 4.67993164 C10.80730713 5.21263672 11.71617676 5.7453418 12.65258789 6.29418945 C14.06326538 7.11064941 14.06326538 7.11064941 15.50244141 7.94360352 C21.59954979 11.48693551 27.62404553 15.12983399 33.60571289 18.86450195 C37.55822574 21.28668291 41.57441624 23.5858092 45.6171875 25.85351562 C49.99697579 28.31741623 54.21230257 30.97903127 58.37133789 33.7980957 C61.55816942 35.10229559 63.35864558 34.65798092 66.65258789 33.73168945 C69.61207582 32.25765527 69.61207582 32.25765527 72.71508789 30.23168945 C74.02097778 29.42083377 75.3284224 28.61247943 76.63696289 27.8059082 C77.39944336 27.33459473 78.16192383 26.86328125 78.94750977 26.37768555 C84.73904211 22.8536322 90.61059342 19.46226935 96.46508789 16.04418945 C98.32898713 14.95509002 100.19264675 13.86559178 102.05552673 12.77474976 C103.24879323 12.07709564 104.44332643 11.38160316 105.63917542 10.68838501 C108.31897295 9.1296664 110.95458692 7.53495023 113.55249023 5.8425293 C119.78789015 1.80100162 119.78789015 1.80100162 123.62524414 1.4934082 C128.36094893 3.43046423 132.69551285 5.93577666 137.09008789 8.54418945 C138.0059668 9.07850586 138.9218457 9.61282227 139.86547852 10.16333008 C141.64669326 11.2029048 143.42591241 12.24590815 145.20288086 13.29272461 C148.33716503 15.133812 151.49200649 16.93620098 154.65258789 18.73168945 C154.65258789 19.72168945 154.65258789 20.71168945 154.65258789 21.73168945 C154.04237793 22.02736816 153.43216797 22.32304687 152.8034668 22.62768555 C146.71104703 25.62080118 140.84759468 28.8673592 135.02758789 32.35668945 C134.1059082 32.90518555 133.18422852 33.45368164 132.23461914 34.01879883 C130.17879681 35.24237496 128.12382769 36.46738545 126.06958008 37.69360352 C122.342252 39.9167912 118.61125314 42.13371784 114.87915039 44.34887695 C113.8724958 44.94637253 113.8724958 44.94637253 112.84550476 45.55593872 C111.47219878 46.37103 110.09888225 47.18610352 108.72555542 48.00115967 C106.65745312 49.22880142 104.58966154 50.45696482 102.52197266 51.68530273 C93.45128321 57.07356202 84.3737684 62.45005376 75.28735352 67.81176758 C74.47588867 68.2906543 73.66442383 68.76954102 72.82836914 69.26293945 C72.08925293 69.69219727 71.35013672 70.12145508 70.58862305 70.5637207 C68.47967477 71.79821502 68.47967477 71.79821502 65.94555664 73.70043945 C63.65258789 74.73168945 63.65258789 74.73168945 60.71899414 74.1418457 C57.51176245 72.66692769 54.59023391 71.03197757 51.59008789 69.16918945 C50.26176068 68.35489254 48.93221967 67.54257403 47.60180664 66.73168945 C46.83658691 66.26504883 46.07136719 65.7984082 45.28295898 65.31762695 C40.4723307 62.41714047 35.61694452 59.59244123 30.76690674 56.75854492 C20.22700813 50.59989014 9.70997306 44.40421695 -0.78491211 38.16918945 C-9.5921123 32.93838851 -18.41704306 27.74986356 -27.34741211 22.73168945 C-26.51537485 18.0061686 -23.59452018 16.21102876 -19.90991211 13.48168945 C-18.63055424 12.51387998 -17.35191303 11.54512246 -16.07397461 10.57543945 C-15.44136719 10.09848633 -14.80875977 9.6215332 -14.15698242 9.13012695 C-10.83260928 6.56104852 -7.68367646 3.77297592 -4.53100586 0.99731445 C-2.34741211 -0.26831055 -2.34741211 -0.26831055 0 0 Z " fill="#FAFBFC" transform="translate(130.347412109375,225.268310546875)"/>
<path d="M0 0 C2.69140625 1.42578125 2.69140625 1.42578125 5.5625 3.3125 C11.43011462 7.08152996 17.42977055 10.5677347 23.5 14 C29.224724 17.24704614 34.91867099 20.51166937 40.5 24 C46.99810245 28.06025225 53.64905125 31.83874595 60.31640625 35.61328125 C66.26688011 38.98642221 72.14629746 42.46194065 78 46 C79.66630743 47.00059848 81.33297451 48.00059829 83 49 C93 55 93 55 95.46337891 56.55224609 C97.97843374 58.08229095 97.97843374 58.08229095 100.82958984 59.02978516 C104.03841744 60.35026461 105.78643681 61.30204385 108 64 C109.68237214 70.24219491 108.93234384 76.99268625 108.625 83.375 C108.57481043 85.17826284 108.52918801 86.98165896 108.48828125 88.78515625 C108.37835058 93.19340185 108.20600758 97.59524109 108 102 C103.91267248 101.41682109 101.10951857 100.09440526 97.60546875 97.9375 C96.06004395 96.99596069 96.06004395 96.99596069 94.48339844 96.03540039 C93.39575195 95.36371826 92.30810547 94.69203613 91.1875 94 C88.92683392 92.62196952 86.66511543 91.24566402 84.40234375 89.87109375 C83.30390137 89.20319824 82.20545898 88.53530273 81.07373047 87.84716797 C77.17569035 85.50462853 73.2301157 83.26184022 69.25 81.0625 C64.80792343 78.60046437 60.43201542 76.06832031 56.125 73.375 C46.29333635 67.24855287 36.18939309 61.57587219 26.14550781 55.80712891 C14.08377327 48.87752947 2.0521668 41.89910032 -9.90185547 34.78491211 C-14.29847769 32.17037593 -18.70617198 29.58878592 -23.171875 27.09375 C-24.36659424 26.41807983 -24.36659424 26.41807983 -25.58544922 25.72875977 C-27.07493982 24.88871756 -28.57111916 24.06039039 -30.07470703 23.24584961 C-32.0546875 22.12109375 -32.0546875 22.12109375 -35 20 C-35 18.68 -35 17.36 -35 16 C-32.55322266 14.09301758 -32.55322266 14.09301758 -29.1640625 12.14453125 C-28.56951263 11.79742599 -27.97496277 11.45032074 -27.36239624 11.09269714 C-25.457707 9.98517342 -23.54181687 8.89887229 -21.625 7.8125 C-20.34036457 7.06970891 -19.05649956 6.32558368 -17.7734375 5.58007812 C-5.76362924 -1.3762848 -5.76362924 -1.3762848 0 0 Z " fill="#FAFBFC" transform="translate(197,122)"/>
<path d="M0 0 C3.08358052 1.19012462 6.00916823 2.46203367 8.8984375 4.06640625 C9.61717041 4.46472656 10.33590332 4.86304688 11.07641602 5.2734375 C11.83494873 5.69882813 12.59348145 6.12421875 13.375 6.5625 C14.17156006 7.00722656 14.96812012 7.45195312 15.78881836 7.91015625 C22.65152946 11.76252233 29.39704374 15.79191922 36.12695312 19.87011719 C47.89499997 26.9689859 59.8232824 33.80120364 71.73950195 40.64697266 C77.35496639 43.8772704 82.93994739 47.14843297 88.48706055 50.49462891 C93.1931979 53.31383059 97.94404216 56.05673329 102.6875 58.8125 C110.11292839 63.1333067 117.51601497 67.48447067 124.86816406 71.92871094 C131.18024113 75.73330004 137.58513887 79.37248993 144 83 C142.82461441 86.52615678 142.22199305 86.7396912 139.09765625 88.48828125 C138.29416748 88.94493164 137.49067871 89.40158203 136.6628418 89.87207031 C135.804729 90.34741211 134.94661621 90.82275391 134.0625 91.3125 C132.31971015 92.29189766 130.57751664 93.27235728 128.8359375 94.25390625 C127.57861816 94.95990967 127.57861816 94.95990967 126.29589844 95.68017578 C122.79945914 97.69014503 119.43510235 99.89797888 116.10546875 102.171875 C113.0798614 103.3619098 111.14899567 102.73342196 108 102 C105.08520508 100.57983398 105.08520508 100.57983398 102.01953125 98.74609375 C101.45802368 98.41383286 100.89651611 98.08157196 100.31799316 97.73924255 C98.47748325 96.64737274 96.64515457 95.54249468 94.8125 94.4375 C93.5157598 93.66526803 92.2184687 92.89396045 90.9206543 92.12353516 C88.24875701 90.53545616 85.58003774 88.94223872 82.9140625 87.34423828 C77.05859769 83.8347406 71.18489112 80.35608549 65.3125 76.875 C64.20704834 76.21822266 63.10159668 75.56144531 61.96264648 74.88476562 C54.30198439 70.33997304 46.59996045 65.87196342 38.875 61.4375 C29.84386967 56.25119691 20.86887795 50.98062096 11.9375 45.625 C10.85388184 44.97587646 9.77026367 44.32675293 8.65380859 43.65795898 C1.12960531 39.12960531 1.12960531 39.12960531 0 38 C-0.08861992 35.1883662 -0.11522355 32.40141745 -0.09765625 29.58984375 C-0.0962413 28.74780899 -0.09482635 27.90577423 -0.09336853 27.03822327 C-0.08775263 24.33794665 -0.07519748 21.63775172 -0.0625 18.9375 C-0.05748705 17.11132932 -0.05292379 15.28515734 -0.04882812 13.45898438 C-0.03777804 8.97262458 -0.02050279 4.48632616 0 0 Z " fill="#FBFBFC" transform="translate(81,126)"/>
<path d="M0 0 C2.31619984 1.14646073 4.52039917 2.3294755 6.75 3.625 C7.77287109 4.20954956 7.77287109 4.20954956 8.81640625 4.8059082 C16.34902215 9.14194444 23.78366834 13.64564249 31.22680664 18.1328125 C39.50870896 23.12216424 47.84161436 28.01736013 56.20043945 32.87646484 C63.60401791 37.18125088 70.98317345 41.52551743 78.35131836 45.890625 C84.24667339 49.38043131 90.15412731 52.84880328 96.06970215 56.3041687 C101.02079003 59.19667413 105.96583999 62.09932196 110.90710449 65.00857544 C114.54541806 67.14959281 118.19428049 69.2715395 121.84765625 71.38671875 C123.50315713 72.36104021 125.15815099 73.33622399 126.8125 74.3125 C127.55918945 74.73805176 128.30587891 75.16360352 129.07519531 75.60205078 C131.08203125 76.80078125 131.08203125 76.80078125 134 79 C134 83 134 83 132.75341797 84.47290039 C132.17221191 84.92656982 131.59100586 85.38023926 130.9921875 85.84765625 C130.3425 86.36457031 129.6928125 86.88148437 129.0234375 87.4140625 C128.31445312 87.95804687 127.60546875 88.50203125 126.875 89.0625 C126.14796875 89.63613281 125.4209375 90.20976563 124.671875 90.80078125 C122.45656233 92.54524349 120.22927925 94.27344083 118 96 C116.79332418 96.94540756 115.58752426 97.8919347 114.3828125 98.83984375 C112.69704479 100.1656851 111.01111226 101.49128882 109.32324219 102.81445312 C104.57182937 106.54051813 99.83676628 110.28640362 95.125 114.0625 C94.06152344 114.90361328 94.06152344 114.90361328 92.9765625 115.76171875 C92.00203125 116.54675781 92.00203125 116.54675781 91.0078125 117.34765625 C90.42660645 117.81179932 89.84540039 118.27594238 89.24658203 118.75415039 C88.83520996 119.16528076 88.42383789 119.57641113 88 120 C88 120.66 88 121.32 88 122 C88.93457031 122.52207031 89.86914062 123.04414063 90.83203125 123.58203125 C98.47744469 127.86216008 106.09859679 132.18289204 113.6875 136.5625 C114.42137939 136.98442627 115.15525879 137.40635254 115.91137695 137.84106445 C117.38192343 138.69209382 118.84101573 139.56326545 120.28715515 140.45513916 C123.03595319 142.09023424 123.03595319 142.09023424 126.27404785 143.38768005 C130.31004825 145.31667393 132.82248454 146.82490047 136 150 C137.83156096 156.10403774 137.52258929 161.96504934 137.26953125 168.28125 C137.24525721 170.06336741 137.22676509 171.84557212 137.21379089 173.62780762 C137.16435744 178.29910567 137.0368775 182.96507346 136.89263916 187.63427734 C136.75918544 192.40649287 136.70018252 197.17957787 136.63476562 201.953125 C136.49571059 211.30441442 136.27411844 220.6517626 136 230 C135.34 230.33 134.68 230.66 134 231 C133.34 230.67 132.68 230.34 132 230 C132.33 229.01 132.66 228.02 133 227 C133.10018575 224.64494318 133.13833007 222.28710828 133.14526367 219.92993164 C133.14862228 219.21415451 133.1519809 218.49837738 133.15544128 217.76091003 C133.16494285 215.39397447 133.16689394 213.0271097 133.16796875 210.66015625 C133.17118168 209.01492788 133.17454578 207.36969981 133.17805481 205.72447205 C133.18404395 202.27537371 133.18589491 198.82630043 133.18530273 195.37719727 C133.18520108 190.95749689 133.19885777 186.53795704 133.21607494 182.11829472 C133.22719249 178.72024294 133.22922202 175.32223002 133.22869301 171.92416191 C133.22987332 170.29467655 133.23429798 168.6651902 133.24202538 167.03572273 C133.25182115 164.75685495 133.24894907 162.47833628 133.24291992 160.19946289 C133.24434494 158.9027919 133.24576996 157.60612091 133.24723816 156.27015686 C133.01554844 153.20565536 132.7357123 151.49953436 131 149 C128.74907067 147.88282603 128.74907067 147.88282603 126 147 C123.63266107 145.8746327 121.28183142 144.73342269 118.9375 143.5625 C118.32583984 143.26279297 117.71417969 142.96308594 117.08398438 142.65429688 C113.82583236 141.03050436 110.72299257 139.43779136 108 137 C108 136.34 108 135.68 108 135 C107.4330542 134.88374268 106.8661084 134.76748535 106.28198242 134.64770508 C101.95544176 133.41968407 98.19319739 130.91450749 94.3125 128.6875 C93.43271484 128.20087891 92.55292969 127.71425781 91.64648438 127.21289062 C90.81052734 126.73400391 89.97457031 126.25511719 89.11328125 125.76171875 C88.34798096 125.32819092 87.58268066 124.89466309 86.79418945 124.44799805 C84.6689023 122.73278807 84.35377612 121.66132083 84 119 C89.75 114 89.75 114 92 114 C92 113.34 92 112.68 92 112 C93.65483608 110.50122497 95.37590512 109.07511527 97.125 107.6875 C98.63320313 106.47900391 98.63320313 106.47900391 100.171875 105.24609375 C101.10515625 104.50488281 102.0384375 103.76367188 103 103 C105.89656304 100.66000796 108.68341434 98.33417375 111.25 95.625 C115.15052346 91.90177306 119.53496163 89.00517734 124 86 C124.65355469 85.55914062 125.30710937 85.11828125 125.98046875 84.6640625 C127.3159582 83.76950662 128.65714343 82.88345827 130 82 C126.63265416 78.19815792 123.33940305 75.92067272 118.87109375 73.55078125 C115.29812585 71.62089247 111.80791388 69.56621048 108.3125 67.5 C107.5999707 67.07992676 106.88744141 66.65985352 106.15332031 66.22705078 C101.87371674 63.70239922 97.59872005 61.16999679 93.32421875 58.63671875 C92.35766357 58.064375 91.3911084 57.49203125 90.39526367 56.90234375 C88.51322427 55.78762541 86.63183952 54.6718008 84.7512207 53.5546875 C79.87328355 50.66512032 74.97145158 47.84891662 69.97802734 45.16308594 C67.89102677 43.93592342 66.0264279 42.55870135 64.125 41.0625 C59.41396917 37.4149494 54.26021006 34.76553049 49 32 C47.01923883 30.91958481 45.04002785 29.83632197 43.0625 28.75 C40.69822843 27.45469952 38.34574467 26.16832306 35.921875 24.98828125 C33.88461817 23.94066748 32.070757 22.74129331 30.1875 21.4375 C25.97266013 18.59493358 21.66806859 15.931608 17.3125 13.3125 C16.68303467 12.932146 16.05356934 12.55179199 15.4050293 12.15991211 C11.67921577 9.93129185 7.91163953 7.89272881 4 6 C4 5.34 4 4.68 4 4 C-0.57452568 2.87511664 -3.41012733 2.23349487 -7.73046875 4.31640625 C-10.5353351 6.14807496 -13.26415183 8.06719215 -16 10 C-17.63074386 10.96350821 -19.27560386 11.90377846 -20.9375 12.8125 C-21.97197266 13.37904297 -21.97197266 13.37904297 -23.02734375 13.95703125 C-24.39566573 14.68048069 -25.78614025 15.36294175 -27.19140625 16.01171875 C-29.17341961 16.87146966 -29.17341961 16.87146966 -30 19 C-31.31774196 19.39044206 -32.65667272 19.70955086 -34 20 C-36.00382009 20.65509503 -38.00458132 21.31974363 -40 22 C-40.33 21.34 -40.66 20.68 -41 20 C-40.26475098 19.57702637 -39.52950195 19.15405273 -38.77197266 18.71826172 C-35.99453344 17.11987054 -33.21757435 15.52064907 -30.44091797 13.92089844 C-29.24839573 13.2340518 -28.05569303 12.54751835 -26.86279297 11.86132812 C-25.12938559 10.86414507 -23.39672209 9.8656693 -21.6640625 8.8671875 C-20.53516602 8.21975586 -19.40626953 7.57232422 -18.24316406 6.90527344 C-16.16961851 5.68712006 -14.11657488 4.43291051 -12.09277344 3.13378906 C-11.22426758 2.5765918 -10.35576172 2.01939453 -9.4609375 1.4453125 C-8.71376465 0.94789551 -7.9665918 0.45047852 -7.19677734 -0.06201172 C-4.36178569 -1.27250716 -2.90834592 -0.90184003 0 0 Z " fill="#2672BC" transform="translate(196,20)"/>
<path d="M0 0 C6.5038368 2.66066051 12.73584087 5.82163354 19 9 C19 9.66 19 10.32 19 11 C19.61875 11.144375 20.2375 11.28875 20.875 11.4375 C23 12 23 12 25 13 C25 13.66 25 14.32 25 15 C26.07894531 15.1546875 26.07894531 15.1546875 27.1796875 15.3125 C30.30692035 16.07481715 32.41647119 17.27714375 35.125 19 C37.80872417 20.69670099 39.97770778 21.99256926 43 23 C43 23.66 43 24.32 43 25 C44.32 25 45.64 25 47 25 C47 25.66 47 26.32 47 27 C47.73476562 27.27714844 48.46953125 27.55429688 49.2265625 27.83984375 C51.7912015 28.91265753 54.01219223 30.10750785 56.375 31.5625 C57.23738281 32.0884375 58.09976563 32.614375 58.98828125 33.15625 C60.47908203 34.06890625 60.47908203 34.06890625 62 35 C64.51774074 36.52598725 67.03943706 38.04533125 69.5625 39.5625 C70.20872314 39.95147461 70.85494629 40.34044922 71.52075195 40.74121094 C75.00200775 42.82881154 78.50108975 44.8633498 82.0625 46.8125 C85.52037315 48.71171063 88.83078301 50.64340275 92 53 C92 53.66 92 54.32 92 55 C93.485 55.495 93.485 55.495 95 56 C94.663817 58.88988083 94.08165805 59.92130283 91.953125 61.97265625 C91.06109375 62.66230469 90.1690625 63.35195312 89.25 64.0625 C85.9611669 66.6361832 82.73099796 69.20409501 79.625 71.99609375 C79.06264648 72.4955249 78.50029297 72.99495605 77.92089844 73.50952148 C76.83126486 74.48149884 75.75064145 75.46370118 74.68066406 76.45727539 C70.88953151 79.793448 68.06846755 81.12768319 63 81 C60.30748292 79.85343947 58.0452714 78.28207764 55.6875 76.5625 C51.68793447 73.32685213 51.68793447 73.32685213 47 72 C47 71.34 47 70.68 47 70 C46.01 69.9071875 46.01 69.9071875 45 69.8125 C38.12518753 67.95057162 31.23938972 62.75168057 26 58 C26 57.34 26 56.68 26 56 C30.01790368 57.47604995 33.5462886 59.39711961 37.21875 61.58984375 C37.79911011 61.93503555 38.37947021 62.28022736 38.97741699 62.63587952 C40.82030009 63.73306902 42.6601726 64.83519586 44.5 65.9375 C45.73548185 66.67415565 46.97115721 67.41048688 48.20703125 68.14648438 C57.30799743 73.56993633 57.30799743 73.56993633 60.73730469 75.70117188 C63.54549095 77.31312169 64.81174484 77.62315896 68 77 C70.26271666 75.37916799 72.21263321 73.80299328 74.25 71.9375 C75.39602779 70.92842815 76.54316842 69.9206188 77.69140625 68.9140625 C78.25102051 68.4180957 78.81063477 67.92212891 79.38720703 67.41113281 C81.60022008 65.47483015 83.87775729 63.63184353 86.1875 61.8125 C86.88230469 61.26207031 87.57710938 60.71164063 88.29296875 60.14453125 C90 59 90 59 92 59 C90.63113794 54.89341382 88.76956106 54.48934062 85 52.4375 C83.71938565 51.72906794 82.43946796 51.01937546 81.16015625 50.30859375 C80.48227051 49.93460449 79.80438477 49.56061523 79.10595703 49.17529297 C75.51720056 47.17247896 71.97804326 45.08650725 68.4375 43 C67.79103516 42.62157959 67.14457031 42.24315918 66.47851562 41.85327148 C62.2414262 39.36163331 58.05102602 36.80125625 53.87109375 34.21484375 C46.85328498 29.88549474 39.74924157 25.71361811 32.625 21.5625 C30.07485831 20.07535104 27.5253297 18.58715972 24.9765625 17.09765625 C24.36419739 16.73979034 23.75183228 16.38192444 23.12091064 16.01321411 C19.7145084 14.0180125 16.32642785 11.99701861 12.9609375 9.93359375 C12.2704834 9.51070068 11.5800293 9.08780762 10.86865234 8.65209961 C9.15832791 7.59761555 7.45385341 6.53365838 5.75 5.46875 C3.09425698 4.0503418 0.96785183 3.39280392 -2 3 C-1.34 2.01 -0.68 1.02 0 0 Z " fill="#2873BF" transform="translate(191,47)"/>
<path d="M0 0 C10.66440504 4.92722511 20.80186305 10.89401461 30.7538147 17.12089539 C33.12600248 18.494073 35.30622788 19.59570619 37.80157471 20.66555786 C47.75166785 25.23007716 47.75166785 25.23007716 49.83698082 29.85717583 C51.12026126 35.2979655 50.72172683 40.83924961 50.46484375 46.37890625 C50.43682872 48.15957156 50.4154947 49.94035336 50.40052795 51.72117615 C50.34353332 56.38507328 50.19650397 61.0418424 50.02996826 65.70294189 C49.87587307 70.46829768 49.80788106 75.23481853 49.73242188 80.00195312 C49.57205614 89.33775003 49.31644543 98.66828014 49 108 C48.01 108.495 48.01 108.495 47 109 C46.01 108.505 46.01 108.505 45 108 C45.495 106.515 45.495 106.515 46 105 C46.10018575 102.64494318 46.13833007 100.28710828 46.14526367 97.92993164 C46.14862228 97.21415451 46.1519809 96.49837738 46.15544128 95.76091003 C46.16494285 93.39397447 46.16689394 91.0271097 46.16796875 88.66015625 C46.17118168 87.01492788 46.17454578 85.36969981 46.17805481 83.72447205 C46.18404395 80.27537371 46.18589491 76.82630043 46.18530273 73.37719727 C46.18520108 68.95749689 46.19885777 64.53795704 46.21607494 60.11829472 C46.22719249 56.72024294 46.22922202 53.32223002 46.22869301 49.92416191 C46.22987332 48.29467655 46.23429798 46.6651902 46.24202538 45.03572273 C46.25182115 42.75685495 46.24894907 40.47833628 46.24291992 38.19946289 C46.24434494 36.9027919 46.24576996 35.60612091 46.24723816 34.27015686 C46.01554844 31.20565536 45.7357123 29.49953436 44 27 C41.74907067 25.88282603 41.74907067 25.88282603 39 25 C36.63266107 23.8746327 34.28183142 22.73342269 31.9375 21.5625 C31.32583984 21.26279297 30.71417969 20.96308594 30.08398438 20.65429688 C26.82583236 19.03050436 23.72299257 17.43779136 21 15 C21 14.34 21 13.68 21 13 C20.41951904 12.87544434 19.83903809 12.75088867 19.2409668 12.62255859 C15.46094091 11.57243701 12.21721257 9.53769186 8.8125 7.625 C7.70745117 7.02558594 7.70745117 7.02558594 6.58007812 6.4140625 C5.87947266 6.0221875 5.17886719 5.6303125 4.45703125 5.2265625 C3.81741455 4.87158691 3.17779785 4.51661133 2.51879883 4.15087891 C1 3 1 3 0 0 Z " fill="#206BB5" transform="translate(283,142)"/>
<path d="M0 0 C-2.39778968 1.91823174 -4.72785906 3.39701403 -7.4375 4.875 C-11.94737284 7.43962726 -15.2614113 10.01864785 -17.12231445 15.01074219 C-18.38411705 19.80591957 -18.26757813 24.58764449 -18.23046875 29.515625 C-18.23001053 30.52606873 -18.22955231 31.53651245 -18.2290802 32.57757568 C-18.22606686 34.71579157 -18.21820814 36.85400543 -18.20581055 38.9921875 C-18.18779227 42.19799976 -18.18529966 45.40351783 -18.18554688 48.609375 C-18.17658431 54.74071884 -18.10689551 60.8696255 -18 67 C-17.98567932 67.94721924 -17.97135864 68.89443848 -17.956604 69.87036133 C-17.90719182 72.51382603 -17.82866744 75.15453007 -17.73828125 77.796875 C-17.72492233 78.57419983 -17.71156342 79.35152466 -17.69779968 80.15240479 C-17.54446475 83.65564126 -17.28292767 85.63995621 -15.08764648 88.43359375 C-13.0314729 89.97638521 -11.07748061 91.16384238 -8.75 92.25 C-8.04359375 92.58515625 -7.3371875 92.9203125 -6.609375 93.265625 C-5.81273438 93.62914062 -5.81273438 93.62914062 -5 94 C-5 94.66 -5 95.32 -5 96 C-4.01 96.33 -3.02 96.66 -2 97 C-2 97.66 -2 98.32 -2 99 C-3.67225265 98.34747161 -5.33736686 97.67666333 -7 97 C-8.61686203 96.3490889 -8.61686203 96.3490889 -10.26638794 95.68502808 C-13.99058655 93.85038593 -17.28105959 92.18911015 -20 89 C-22.00087118 83.0507275 -21.93230413 77.2978156 -21.8671875 71.0703125 C-21.88613299 69.31204553 -21.90833374 67.55381093 -21.93362427 65.79562378 C-21.97074573 62.11772054 -21.9591173 58.44390065 -21.91455078 54.76611328 C-21.86289216 50.07189025 -21.94691147 45.39142388 -22.06979179 40.69893074 C-22.14716975 37.06901259 -22.14447864 33.44234804 -22.11911392 29.8118248 C-22.11784169 28.08385045 -22.14256289 26.35563859 -22.19475937 24.6284523 C-22.47695887 13.714704 -22.47695887 13.714704 -20 9 C-15.42689882 4.31660202 -6.64193821 -2.2139794 0 0 Z " fill="#1D203D" transform="translate(74,91)"/>
<path d="M0 0 C5.99623033 0.26070567 9.75593489 2.38892689 14.765625 5.625 C17.0340424 7.13794995 17.0340424 7.13794995 20 8 C20 8.66 20 9.32 20 10 C20.73089844 10.12761719 21.46179688 10.25523437 22.21484375 10.38671875 C26.83132279 11.4032506 30.35526484 12.95971646 34 16 C38.90398132 24.83645352 38.35768015 34.40508669 37.8125 44.125 C37.75260935 45.54679428 37.69465558 46.96867152 37.63867188 48.390625 C37.19340792 58.61318415 37.19340792 58.61318415 36 61 C35.34 61 34.68 61 34 61 C34 60.34 34 59.68 34 59 C33.01 58.505 33.01 58.505 32 58 C32.66 58 33.32 58 34 58 C34.25434092 52.75115417 34.40077816 47.51379905 34.45166016 42.2590332 C34.48361136 40.47670442 34.54400534 38.69463463 34.63427734 36.91430664 C35.10610571 28.27655687 35.10610571 28.27655687 33 20 C29.21603784 15.86323852 24.03422333 13.81676305 18.91369629 11.78408813 C16.53886608 10.81106216 14.40219359 9.57873169 12.2265625 8.22265625 C11.61039062 7.85462891 10.99421875 7.48660156 10.359375 7.10742188 C9.78703125 6.76259766 9.2146875 6.41777344 8.625 6.0625 C7.99851562 5.69060547 7.37203125 5.31871094 6.7265625 4.93554688 C4.23335491 3.43908499 2.06471265 2.06471265 0 0 Z " fill="#366FAE" transform="translate(271,166)"/>
<path d="M0 0 C0.99 0.33 1.98 0.66 3 1 C2.76062124 4.61009053 2.12066303 5.8764503 -0.44921875 8.5078125 C-1.51792124 9.39331366 -2.59820568 10.26495627 -3.6875 11.125 C-4.26910889 11.60018066 -4.85071777 12.07536133 -5.44995117 12.56494141 C-7.2881183 14.05880597 -9.14107727 15.53206839 -11 17 C-11.57008789 17.45181641 -12.14017578 17.90363281 -12.72753906 18.36914062 C-15.5723503 20.61929242 -18.42717168 22.85645973 -21.28515625 25.08984375 C-25.45539487 28.35345961 -29.61354929 31.63113276 -33.75 34.9375 C-34.44198486 35.48132324 -35.13396973 36.02514648 -35.84692383 36.58544922 C-36.49040771 37.10252441 -37.1338916 37.61959961 -37.796875 38.15234375 C-38.36760742 38.60601318 -38.93833984 39.05968262 -39.52636719 39.52709961 C-41.20145144 41.20135131 -42.05305671 42.84278456 -43 45 C-43.66 43.35 -44.32 41.7 -45 40 C-39.25 35 -39.25 35 -37 35 C-37 34.34 -37 33.68 -37 33 C-35.34516392 31.50122497 -33.62409488 30.07511527 -31.875 28.6875 C-30.86953125 27.88183594 -29.8640625 27.07617188 -28.828125 26.24609375 C-27.89484375 25.50488281 -26.9615625 24.76367188 -26 24 C-23.10343696 21.66000796 -20.31658566 19.33417375 -17.75 16.625 C-13.84947654 12.90177306 -9.46503837 10.00517734 -5 7 C-4.34644531 6.55914062 -3.69289063 6.11828125 -3.01953125 5.6640625 C-1.6840418 4.76950662 -0.34285657 3.88345827 1 3 C0.505 1.515 0.505 1.515 0 0 Z " fill="#2774C1" transform="translate(325,99)"/>
<path d="M0 0 C2.475 0.495 2.475 0.495 5 1 C3.4351223 13.26525766 -14.51209572 22.63378275 -23.71044922 29.82324219 C-33.68727226 37.5346032 -33.68727226 37.5346032 -43 46 C-43.66 45.67 -44.32 45.34 -45 45 C-45 44.01 -45 43.02 -45 42 C-42.64601029 40.04186735 -40.30551755 38.26493574 -37.8125 36.5 C-32.40077721 32.56502221 -27.13127713 28.55695098 -22.0625 24.1875 C-17.86231956 20.57470843 -13.6100246 17.07194263 -9.2109375 13.703125 C-5.09209162 10.53030379 -1.0523186 7.2570828 3 4 C2.01 2.68 1.02 1.36 0 0 Z " fill="#2C2C4A" transform="translate(100,206)"/>
<path d="M0 0 C2.92396485 0.62328649 5.26368369 1.54953148 7.87109375 3.00390625 C8.60360352 3.4107666 9.33611328 3.81762695 10.09082031 4.23681641 C10.86522461 4.67429199 11.63962891 5.11176758 12.4375 5.5625 C13.24155273 6.01286621 14.04560547 6.46323242 14.87402344 6.92724609 C20.62501267 10.16948375 26.25547063 13.56356285 31.8515625 17.06640625 C35.23493458 19.14428364 38.66739073 21.11199359 42.125 23.0625 C58.90924489 32.56279657 58.90924489 32.56279657 63 37 C58.54759745 36.42390355 55.59760116 34.74457095 51.8125 32.375 C44.66130752 27.96543474 37.41001981 23.74688607 30.125 19.5625 C27.88008918 18.26843586 25.63529609 16.97416743 23.390625 15.6796875 C19.44682771 13.40677153 15.49874453 11.14165515 11.546875 8.8828125 C9.98936386 7.98475553 8.43205529 7.08634709 6.875 6.1875 C6.1648877 5.78539307 5.45477539 5.38328613 4.72314453 4.96899414 C3.11483079 4.03548447 1.55092678 3.02603095 0 2 C0 1.34 0 0.68 0 0 Z " fill="#2D2E4D" transform="translate(63,254)"/>
<path d="M0 0 C-8.94779336 6.00315591 -18.16735097 11.49618258 -27.5 16.875 C-28.63356934 17.52927979 -29.76713867 18.18355957 -30.93505859 18.85766602 C-35.90121131 21.70775768 -40.85920184 24.47431179 -46 27 C-46 26.01 -46 25.02 -46 24 C-45.01 24 -44.02 24 -43 24 C-42.67 23.01 -42.34 22.02 -42 21 C-40.68 21 -39.36 21 -38 21 C-38 20.34 -38 19.68 -38 19 C-34.69649386 15.88002198 -33.67590167 15 -29 15 C-29 14.34 -29 13.68 -29 13 C-27.824375 12.4225 -26.64875 11.845 -25.4375 11.25 C-18.21848326 8.18499586 -18.21848326 8.18499586 -13 3 C-11.68 3 -10.36 3 -9 3 C-9 2.34 -9 1.68 -9 1 C-5.47051709 -0.66670026 -3.71727674 -1.13583456 0 0 Z " fill="#265491" transform="translate(191,51)"/>
<path d="M0 0 C9.08433735 2.73694779 9.08433735 2.73694779 13 6 C14.65916032 6.96034626 16.31976437 7.9183274 17.98925781 8.8605957 C21.45440081 10.82414868 24.88071867 12.85388531 28.3125 14.875 C29.05653076 15.31263672 29.80056152 15.75027344 30.56713867 16.20117188 C35.40435246 19.04974749 40.22461731 21.92436877 45.01953125 24.84375 C46.9760261 25.9860034 48.96238452 27.01095518 51 28 C51 28.66 51 29.32 51 30 C52.65 30.33 54.3 30.66 56 31 C56.495 32.485 56.495 32.485 57 34 C45.68230984 29.67264788 35.47534925 22.71085489 25.18847656 16.38623047 C23.39780977 15.28655381 21.60563185 14.18940213 19.8125 13.09375 C19.2362085 12.74086914 18.65991699 12.38798828 18.06616211 12.02441406 C13.51098828 9.25727053 8.8541764 6.73168335 4.109375 4.30664062 C2 3 2 3 0 0 Z " fill="#293663" transform="translate(81,124)"/>
<path d="M0 0 C0.66 0.66 1.32 1.32 2 2 C0.6078125 2.0309375 0.6078125 2.0309375 -0.8125 2.0625 C-5.67580671 2.74041548 -9.2090433 5.46895335 -13.21484375 8.15234375 C-17.67153938 11.10888938 -22.33331865 13.76885834 -27.19140625 16.01171875 C-29.17341961 16.87146966 -29.17341961 16.87146966 -30 19 C-31.31774196 19.39044206 -32.65667272 19.70955086 -34 20 C-36.00382009 20.65509503 -38.00458132 21.31974363 -40 22 C-40.33 21.34 -40.66 20.68 -41 20 C-40.26475098 19.57702637 -39.52950195 19.15405273 -38.77197266 18.71826172 C-35.99453344 17.11987054 -33.21757435 15.52064907 -30.44091797 13.92089844 C-29.24839573 13.2340518 -28.05569303 12.54751835 -26.86279297 11.86132812 C-25.12938559 10.86414507 -23.39672209 9.8656693 -21.6640625 8.8671875 C-20.53516602 8.21975586 -19.40626953 7.57232422 -18.24316406 6.90527344 C-16.16961851 5.68712006 -14.11657488 4.43291051 -12.09277344 3.13378906 C-11.22426758 2.5765918 -10.35576172 2.01939453 -9.4609375 1.4453125 C-8.71376465 0.94789551 -7.9665918 0.45047852 -7.19677734 -0.06201172 C-4.36766627 -1.26999624 -2.88627825 -0.95688684 0 0 Z " fill="#2A65A2" transform="translate(196,20)"/>
<path d="M0 0 C3.25989102 1.24551599 6.28290024 2.62684678 9.30859375 4.36328125 C10.12706787 4.83145264 10.94554199 5.29962402 11.78881836 5.78198242 C13.09991577 6.53958862 13.09991577 6.53958862 14.4375 7.3125 C15.35474854 7.84012939 16.27199707 8.36775879 17.21704102 8.91137695 C32.33897006 17.63186476 47.42952633 26.37751995 62 36 C61.505 36.99 61.505 36.99 61 38 C60.24074219 37.50628906 59.48148438 37.01257813 58.69921875 36.50390625 C57.70535156 35.86324219 56.71148437 35.22257812 55.6875 34.5625 C54.70136719 33.92441406 53.71523437 33.28632813 52.69921875 32.62890625 C50.04723007 30.89384394 50.04723007 30.89384394 47 30 C47 29.34 47 28.68 47 28 C46.443125 27.87625 45.88625 27.7525 45.3125 27.625 C42.77885636 26.94023145 40.42078968 26.00866237 38 25 C38 24.34 38 23.68 38 23 C36.700625 22.61714844 36.700625 22.61714844 35.375 22.2265625 C31.88202737 20.95712569 29.12580514 19.37647217 26 17.375 C20.12421499 13.66140079 14.1441412 10.18241011 8.09375 6.76171875 C7.0728125 6.18035156 6.051875 5.59898437 5 5 C4.0409375 4.47019531 3.081875 3.94039063 2.09375 3.39453125 C1.4028125 2.93433594 0.711875 2.47414063 0 2 C0 1.34 0 0.68 0 0 Z " fill="#242541" transform="translate(127,262)"/>
<path d="M0 0 C3.14737182 0.69941596 6.02588876 1.76078698 9 3 C9 3.66 9 4.32 9 5 C9.763125 5.20625 10.52625 5.4125 11.3125 5.625 C16.49898594 7.55894391 21.19033084 10.2785146 26 13 C26 13.66 26 14.32 26 15 C32.08281989 16.83200222 36.3295606 16.18278984 41.82397461 13.2578125 C43.75798981 12.15605307 45.66979249 11.02182521 47.58203125 9.8828125 C50.5668606 8.23859793 52.65967942 7.39447595 56 7 C52.54124929 10.91692288 48.56487891 13.22998118 44.0625 15.75 C43.35931641 16.16121094 42.65613281 16.57242187 41.93164062 16.99609375 C35.12736699 20.83505601 35.12736699 20.83505601 31 20 C28.265625 18.6015625 28.265625 18.6015625 25.25 16.625 C24.11596871 15.89368059 22.98046967 15.1646337 21.84375 14.4375 C20.92916016 13.8496875 20.92916016 13.8496875 19.99609375 13.25 C15.56881316 10.47753466 11.010678 7.91439142 6.47363281 5.32666016 C1.10910319 2.21820639 1.10910319 2.21820639 0 0 Z " fill="#2E304D" transform="translate(159,311)"/>
<path d="M0 0 C2.31 0.66 4.62 1.32 7 2 C7 2.66 7 3.32 7 4 C7.598125 4.144375 8.19625 4.28875 8.8125 4.4375 C10.56150404 4.8872439 12.28677023 5.42892341 14 6 C14 6.66 14 7.32 14 8 C14.8353125 8.1546875 14.8353125 8.1546875 15.6875 8.3125 C19.36520121 9.40587063 22.34148835 11.58240724 25.5625 13.625 C27.76911028 14.86975452 29.52804624 15.54223078 32 16 C32 16.66 32 17.32 32 18 C32.99 18 33.98 18 35 18 C36.01126652 18.98860509 37.00968455 19.99040834 38 21 C40.26027345 22.2048149 40.26027345 22.2048149 42.6875 23.1875 C43.49574219 23.53167969 44.30398437 23.87585938 45.13671875 24.23046875 C46.05904297 24.61138672 46.05904297 24.61138672 47 25 C47 25.66 47 26.32 47 27 C47.66 27 48.32 27 49 27 C49 27.66 49 28.32 49 29 C51.475 29.99 51.475 29.99 54 31 C53.01 31.495 53.01 31.495 52 32 C49.8996582 31.06298828 49.8996582 31.06298828 47.30078125 29.5703125 C46.3461499 29.02656982 45.39151855 28.48282715 44.40795898 27.92260742 C43.38645752 27.32939697 42.36495605 26.73618652 41.3125 26.125 C39.74834351 25.22841675 39.74834351 25.22841675 38.15258789 24.3137207 C31.78808895 20.65333487 25.46129405 16.93264912 19.18457031 13.1237793 C12.86252291 9.28846357 6.4361654 5.63955732 0 2 C0 1.34 0 0.68 0 0 Z " fill="#2B3E6E" transform="translate(139,158)"/>
<path d="M0 0 C-0.58789307 0.34667725 -1.17578613 0.69335449 -1.78149414 1.05053711 C-3.54210614 2.08904925 -5.30241419 3.12807677 -7.0625 4.16748047 C-9.0704018 5.3521556 -11.07952798 6.53475788 -13.08984375 7.71533203 C-17.62868042 10.38656576 -22.15079698 13.06769959 -26.58984375 15.90234375 C-27.25943115 16.32459229 -27.92901855 16.74684082 -28.61889648 17.18188477 C-29.83962943 17.95615107 -31.05205754 18.74372987 -32.25415039 19.54663086 C-35.10808641 21.34199153 -36.75971622 22.01097593 -40.1640625 21.85546875 C-43.92131404 20.72208295 -46.67184781 19.06345436 -50 17 C-50 16.34 -50 15.68 -50 15 C-47.21298252 15.5574035 -45.33827551 16.35618949 -42.78515625 17.73046875 C-39.0587283 19.38713762 -39.0587283 19.38713762 -35.5 17.9375 C-34.31833176 17.31954209 -33.15160829 16.672317 -32 16 C-31.38987061 15.66911377 -30.77974121 15.33822754 -30.15112305 14.99731445 C-25.85296452 12.6233616 -21.87057711 10.01044886 -18 7 C-17.01 6.34 -16.02 5.68 -15 5 C-14.34 4.34 -13.68 3.68 -13 3 C-11.56914906 2.21828028 -10.10618827 1.49404344 -8.625 0.8125 C-7.85414063 0.44769531 -7.08328125 0.08289063 -6.2890625 -0.29296875 C-3.68569074 -1.09708187 -2.55633698 -0.74915529 0 0 Z " fill="#25325D" transform="translate(232,239)"/>
<path d="M0 0 C4.00001836 1.47211026 7.52269366 3.37766709 11.18359375 5.5546875 C11.76158218 5.89750763 12.33957062 6.24032776 12.93507385 6.59353638 C14.15213612 7.31636824 15.36817976 8.04091767 16.58325195 8.76708984 C18.42620419 9.86825077 20.27236404 10.96386139 22.11914062 12.05859375 C31.18895206 17.45238863 31.18895206 17.45238863 35.24633789 20.19189453 C37.64407886 21.7662956 39.20920353 22.5706467 42 23 C42 23.66 42 24.32 42 25 C36.42925849 24.55854501 33.20270123 23.19051029 28.6875 19.9375 C25.16460813 17.05049524 25.16460813 17.05049524 21 16 C21 15.34 21 14.68 21 14 C20.34 13.938125 19.68 13.87625 19 13.8125 C12.12518753 11.95057162 5.23938972 6.75168057 0 2 C0 1.34 0 0.68 0 0 Z " fill="#2562A1" transform="translate(217,103)"/>
<path d="M0 0 C2.375 1.0625 2.375 1.0625 4 2 C4 2.66 4 3.32 4 4 C6.475 4.495 6.475 4.495 9 5 C9 5.66 9 6.32 9 7 C9.86625 7.2475 10.7325 7.495 11.625 7.75 C15 9 15 9 17.875 11 C21.62524637 13.40015768 24.663802 14.10285559 29 15 C29.495 17.475 29.495 17.475 30 20 C25.90712663 18.7703559 22.6110415 17.30880024 19.0625 14.9375 C18.12277344 14.32777344 17.18304688 13.71804687 16.21484375 13.08984375 C14.62349609 12.05537109 14.62349609 12.05537109 13 11 C10.38979975 9.30874159 7.76351373 7.64668844 5.125 6 C4.494729 5.58999756 3.86445801 5.17999512 3.21508789 4.75756836 C0.51285457 3.08726052 -1.42701845 1.99407552 -4.64453125 2.02734375 C-7.44243936 3.18269884 -9.47408373 4.64290455 -11.8125 6.5625 C-12.60269531 7.20316406 -13.39289063 7.84382812 -14.20703125 8.50390625 C-14.79871094 8.99761719 -15.39039062 9.49132812 -16 10 C-16.66 9.67 -17.32 9.34 -18 9 C-16.71372289 7.82739389 -15.42080217 6.6620717 -14.125 5.5 C-13.40570313 4.8503125 -12.68640625 4.200625 -11.9453125 3.53125 C-10 2 -10 2 -8 2 C-8 1.34 -8 0.68 -8 0 C-5.08585452 -1.45707274 -3.13079879 -0.68877573 0 0 Z " fill="#293054" transform="translate(134,224)"/>
<path d="M0 0 C1.67542976 0.28604898 3.34385343 0.61781233 5 1 C5 1.66 5 2.32 5 3 C5.68707031 3.17015625 6.37414062 3.3403125 7.08203125 3.515625 C7.98308594 3.75796875 8.88414062 4.0003125 9.8125 4.25 C10.70582031 4.48203125 11.59914062 4.7140625 12.51953125 4.953125 C15.4433142 6.18709953 16.16408979 7.47562347 18 10 C20.4713994 11.53607419 20.4713994 11.53607419 23.1875 12.75 C24.08855469 13.17796875 24.98960937 13.6059375 25.91796875 14.046875 C26.60503906 14.36140625 27.29210937 14.6759375 28 15 C28 15.66 28 16.32 28 17 C28.598125 17.144375 29.19625 17.28875 29.8125 17.4375 C31.56150404 17.8872439 33.28677023 18.42892341 35 19 C34.505 20.485 34.505 20.485 34 22 C26.20199722 18.38629139 18.81047687 14.21717002 11.4375 9.8125 C10.55674805 9.28946289 9.67599609 8.76642578 8.76855469 8.22753906 C7.93614258 7.72577148 7.10373047 7.22400391 6.24609375 6.70703125 C5.50029053 6.2581958 4.7544873 5.80936035 3.98608398 5.34692383 C2.07606897 4.05158851 0.56577357 2.68776582 -1 1 C-0.67 0.67 -0.34 0.34 0 0 Z " fill="#265B9F" transform="translate(215,131)"/>
<path d="M0 0 C3.86009332 0.58359756 6.61666195 1.71420794 9.96484375 3.703125 C10.92003906 4.26563965 11.87523438 4.8281543 12.859375 5.40771484 C14.38304688 6.319646 14.38304688 6.319646 15.9375 7.25 C16.98550781 7.86955566 18.03351563 8.48911133 19.11328125 9.12744141 C21.30503179 10.42403004 23.49494481 11.72372931 25.68310547 13.02636719 C28.94180751 14.96537405 32.20609416 16.89458165 35.47265625 18.8203125 C40.65209065 21.87405928 45.82754769 24.93444349 51 28 C46.9134318 29.3621894 45.29670508 28.13678429 41.51953125 26.3671875 C38.01168501 24.46370504 34.86325925 22.16244345 31.640625 19.81640625 C27.30382482 16.83325228 22.66687234 14.42215998 18 12 C18 11.34 18 10.68 18 10 C17.319375 9.938125 16.63875 9.87625 15.9375 9.8125 C12.53375237 8.87103789 10.5582474 7.31804518 7.78125 5.2109375 C5.34848009 3.55708076 2.82440637 2.75776756 0 2 C0 1.34 0 0.68 0 0 Z " fill="#262948" transform="translate(80,165)"/>
<path d="M0 0 C-2.5064055 2.80955262 -5.29934448 4.47111394 -8.55859375 6.328125 C-9.66783203 6.96363281 -10.77707031 7.59914063 -11.91992188 8.25390625 C-13.09235154 8.91944065 -14.26487793 9.58480466 -15.4375 10.25 C-17.70719113 11.54659516 -19.97672313 12.84346894 -22.24609375 14.140625 C-23.35968262 14.77548828 -24.47327148 15.41035156 -25.62060547 16.06445312 C-30.76563518 19.01126685 -35.88440639 22.00238656 -41 25 C-41.33 24.34 -41.66 23.68 -42 23 C-40.90241493 22.15801693 -39.79664683 21.32669329 -38.6875 20.5 C-38.07261719 20.0359375 -37.45773438 19.571875 -36.82421875 19.09375 C-35 18 -35 18 -32 18 C-32 17.34 -32 16.68 -32 16 C-29.87767021 14.82823482 -27.75242209 13.66245215 -25.625 12.5 C-24.72007813 11.99919922 -24.72007813 11.99919922 -23.796875 11.48828125 C-19.2265625 9 -19.2265625 9 -17 9 C-17 8.34 -17 7.68 -17 7 C-15.35 6.67 -13.7 6.34 -12 6 C-12 5.34 -12 4.68 -12 4 C-9.75 2.5 -9.75 2.5 -7 1 C-5.948125 0.38125 -5.948125 0.38125 -4.875 -0.25 C-3 -1 -3 -1 0 0 Z " fill="#2A4474" transform="translate(141,80)"/>
<path d="M0 0 C-7.15303527 4.87581293 -14.47531079 9.44668394 -21.875 13.9375 C-22.72239746 14.46162476 -22.72239746 14.46162476 -23.58691406 14.99633789 C-25.23679631 16.01651035 -26.89561951 17.02217875 -28.5546875 18.02734375 C-30.01624268 18.92054321 -30.01624268 18.92054321 -31.50732422 19.83178711 C-34 21 -34 21 -37 20 C-34.91427329 17.72115044 -33.05702187 16.39377389 -30.25 15.125 C-27.35636479 13.7498596 -24.86348636 12.24946339 -22.3125 10.3125 C-19.59440564 8.28016339 -17.4500744 7.31364313 -14 7 C-14 6.34 -14 5.68 -14 5 C-12.23628182 3.96692229 -10.46374967 2.94887951 -8.6875 1.9375 C-7.20830078 1.08478516 -7.20830078 1.08478516 -5.69921875 0.21484375 C-3 -1 -3 -1 0 0 Z " fill="#23325E" transform="translate(255,295)"/>
<path d="M0 0 C3.42124576 5.13186865 3.13215379 10.72697855 2.9140625 16.73828125 C2.87023437 17.96998047 2.82640625 19.20167969 2.78125 20.47070312 C2.7296875 21.73849609 2.678125 23.00628906 2.625 24.3125 C2.58117187 25.59962891 2.53734375 26.88675781 2.4921875 28.21289062 C2.13146076 37.73707847 2.13146076 37.73707847 1 40 C0.34 39.67 -0.32 39.34 -1 39 C-0.67 26.13 -0.34 13.26 0 0 Z " fill="#155EB0" transform="translate(306,187)"/>
<path d="M0 0 C7.78417244 3.70274149 15.02404114 7.79173326 22.1875 12.55859375 C24.77823041 14.18595497 24.77823041 14.18595497 27.046875 13.8828125 C29.4788081 12.78357874 31.87493581 11.65628294 34.25 10.4375 C35.14203125 9.98246094 36.0340625 9.52742188 36.953125 9.05859375 C37.62859375 8.70925781 38.3040625 8.35992187 39 8 C36.68891257 12.88342822 34.42583338 14.33800593 29.5 16.625 C25.21217162 17.59914351 22.78338739 16.15195271 19.0625 14 C17.02419769 12.6935281 15.00262817 11.360524 13 10 C12.13246094 9.42636719 11.26492187 8.85273437 10.37109375 8.26171875 C8.8845019 7.27473932 7.40532003 6.27640495 5.9375 5.26171875 C4.01583823 4.01031401 2.0694235 2.98390001 0 2 C0 1.34 0 0.68 0 0 Z " fill="#273B64" transform="translate(106,109)"/>
<path d="M0 0 C0.33 0 0.66 0 1 0 C1 20.46 1 40.92 1 62 C0.01 62.495 0.01 62.495 -1 63 C-1.66 62.67 -2.32 62.34 -3 62 C-2.86042877 61.27423767 -2.72085754 60.54847534 -2.57705688 59.80072021 C-1.24566346 52.44809063 -0.669495 45.35397834 -0.5859375 37.890625 C-0.56657135 36.79780212 -0.5472052 35.70497925 -0.5272522 34.57904053 C-0.46813578 31.13610295 -0.42134612 27.69313068 -0.375 24.25 C-0.33675754 21.89581987 -0.29770231 19.54165279 -0.2578125 17.1875 C-0.16249141 11.45845042 -0.07725164 5.72932023 0 0 Z " fill="#1D5D95" transform="translate(331,188)"/>
<path d="M0 0 C6.5038368 2.66066051 12.73584087 5.82163354 19 9 C19 9.66 19 10.32 19 11 C19.5775 11.0825 20.155 11.165 20.75 11.25 C23.6159304 12.20531013 24.9990764 13.78469173 27 16 C26.34 16.33 25.68 16.66 25 17 C22.83276367 15.93603516 22.83276367 15.93603516 20.16796875 14.2890625 C19.20439453 13.70382813 18.24082031 13.11859375 17.24804688 12.515625 C16.23806641 11.89171875 15.22808594 11.2678125 14.1875 10.625 C12.20599427 9.40206941 10.22044447 8.18566167 8.23046875 6.9765625 C7.34770264 6.43080566 6.46493652 5.88504883 5.55541992 5.32275391 C2.9941591 3.9969766 0.84062386 3.41040808 -2 3 C-1.34 2.01 -0.68 1.02 0 0 Z " fill="#2E6DB1" transform="translate(191,47)"/>
<path d="M0 0 C0.53367188 0.23976563 1.06734375 0.47953125 1.6171875 0.7265625 C-1.71437216 4.57867835 -4.18341395 6.22184893 -9.12890625 7.8359375 C-12.72820583 9.25819106 -15.85700057 11.40632571 -19.0859375 13.51953125 C-21.3828125 14.7265625 -21.3828125 14.7265625 -25.3828125 14.7265625 C-25.3828125 14.0665625 -25.3828125 13.4065625 -25.3828125 12.7265625 C-24.81175781 12.4584375 -24.24070313 12.1903125 -23.65234375 11.9140625 C-19.63727552 9.97355257 -15.72155063 7.98521191 -11.96484375 5.578125 C-11.39080811 5.21074219 -10.81677246 4.84335937 -10.2253418 4.46484375 C-8.56493224 3.38858681 -6.91506127 2.29612494 -5.265625 1.203125 C-2.3828125 -0.2734375 -2.3828125 -0.2734375 0 0 Z " fill="#28325C" transform="translate(216.3828125,287.2734375)"/>
<path d="M0 0 C4.55194421 1.35480639 8.3453233 3.19816459 12.421875 5.625 C13.00793518 5.97256348 13.59399536 6.32012695 14.19781494 6.67822266 C15.42631366 7.40839557 16.65316406 8.1413483 17.87841797 8.87695312 C19.75482352 10.00289436 21.63667492 11.11926155 23.51953125 12.234375 C32.70726479 17.70726479 32.70726479 17.70726479 35 20 C33.68 20.33 32.36 20.66 31 21 C31 20.34 31 19.68 31 19 C29.68 18.67 28.36 18.34 27 18 C27 17.34 27 16.68 27 16 C26.11924805 15.81425415 26.11924805 15.81425415 25.22070312 15.62475586 C23.00314447 15.00088464 21.42130465 14.20857625 19.46875 13.00390625 C18.50001953 12.41319336 18.50001953 12.41319336 17.51171875 11.81054688 C16.84785156 11.39869141 16.18398437 10.98683594 15.5 10.5625 C14.17789359 9.74998218 12.85499923 8.93874485 11.53125 8.12890625 C10.91475586 7.75121094 10.29826172 7.37351563 9.66308594 6.984375 C8.36445905 6.21572209 7.02433049 5.51707633 5.671875 4.84765625 C3.32900177 3.65979763 1.77816053 1.905172 0 0 Z " fill="#2C365E" transform="translate(146,203)"/>
<path d="M0 0 C5.99103001 1.57658685 10.81032554 4.73791891 16 8 C16.98484375 8.6084375 17.9696875 9.216875 18.984375 9.84375 C27.26799804 15.01553581 27.26799804 15.01553581 30 18 C25.27023729 17.45044662 21.76714286 15.29087694 17.8125 12.8125 C16.48453773 11.99452742 15.15641212 11.17681996 13.828125 10.359375 C13.18037109 9.95783203 12.53261719 9.55628906 11.86523438 9.14257812 C8.50707331 7.0854847 5.08024136 5.14335726 1.66015625 3.19140625 C1.11230469 2.79824219 0.56445312 2.40507812 0 2 C0 1.34 0 0.68 0 0 Z " fill="#222446" transform="translate(96,273)"/>
<path d="M0 0 C2.89682535 1.15873014 4.72525176 2.31471916 7.125 4.25 C11.05898645 6.69545104 15.0988089 8.96059722 19.125 11.25 C17.359375 12.36791992 17.359375 12.36791992 15.125 13.25 C13.265625 12.60668945 13.265625 12.60668945 11.375 11.36328125 C10.6840625 10.91919922 9.993125 10.47511719 9.28125 10.01757812 C8.5696875 9.53740234 7.858125 9.05722656 7.125 8.5625 C6.05765625 7.87124023 6.05765625 7.87124023 4.96875 7.16601562 C1.60151815 4.97040456 -1.70161285 2.72094469 -4.875 0.25 C-2.875 -0.75 -2.875 -0.75 0 0 Z " fill="#2B61A3" transform="translate(253.875,152.75)"/>
<path d="M0 0 C2.16796875 0.87109375 2.16796875 0.87109375 4.16796875 2.87109375 C3.26046875 2.89171875 2.35296875 2.91234375 1.41796875 2.93359375 C-4.64763582 3.73400343 -9.7592475 7.68082088 -14.83203125 10.87109375 C-14.83203125 10.21109375 -14.83203125 9.55109375 -14.83203125 8.87109375 C-15.49203125 8.54109375 -16.15203125 8.21109375 -16.83203125 7.87109375 C-14.61248474 6.49851898 -12.38367716 5.14850224 -10.14453125 3.80859375 C-9.51869141 3.41865234 -8.89285156 3.02871094 -8.24804688 2.62695312 C-5.36161373 0.91927278 -3.39539856 -0.15454918 0 0 Z M-18.83203125 10.87109375 C-17.51203125 11.20109375 -16.19203125 11.53109375 -14.83203125 11.87109375 C-16.15203125 12.20109375 -17.47203125 12.53109375 -18.83203125 12.87109375 C-18.83203125 12.21109375 -18.83203125 11.55109375 -18.83203125 10.87109375 Z " fill="#2A6CAE" transform="translate(193.83203125,19.12890625)"/>
<path d="M0 0 C0.66 0.33 1.32 0.66 2 1 C-1.21388556 2.99115918 -4.43066055 4.97707162 -7.65625 6.94921875 C-9.53990373 8.10449703 -11.41897472 9.26759858 -13.28125 10.45703125 C-17.42732085 13.03014101 -17.42732085 13.03014101 -20.375 12.875 C-22 12 -22 12 -23 10 C-21.80375 9.649375 -20.6075 9.29875 -19.375 8.9375 C-14.19815104 7.24490983 -9.48468314 4.81827146 -4.69873047 2.24975586 C-3.16087342 1.44322483 -1.58266279 0.71461534 0 0 Z " fill="#1A1B3E" transform="translate(213,318)"/>
<path d="M0 0 C-9.9 5.94 -9.9 5.94 -20 12 C-20.33 11.01 -20.66 10.02 -21 9 C-19.02 8.01 -17.04 7.02 -15 6 C-15 5.34 -15 4.68 -15 4 C-13.25705322 3.13153169 -11.50531337 2.28069373 -9.75 1.4375 C-8.77546875 0.96183594 -7.8009375 0.48617187 -6.796875 -0.00390625 C-4 -1 -4 -1 0 0 Z " fill="#263B6C" transform="translate(232,239)"/>
<path d="M0 0 C1.258125 -0.04125 2.51625 -0.0825 3.8125 -0.125 C4.52019531 -0.14820313 5.22789062 -0.17140625 5.95703125 -0.1953125 C8 0 8 0 11 2 C11 2.66 11 3.32 11 4 C11.7425 4.28875 12.485 4.5775 13.25 4.875 C18.16393443 6.8852459 18.16393443 6.8852459 20 8 C20.33 8.99 20.66 9.98 21 11 C17.26660511 9.61850911 14.02893105 7.86558736 10.625 5.8125 C5.98309534 3.19797998 5.98309534 3.19797998 0.8125 3.125 C-0.5796875 3.558125 -0.5796875 3.558125 -2 4 C-2.33 3.34 -2.66 2.68 -3 2 C-2.01 2 -1.02 2 0 2 C0 1.34 0 0.68 0 0 Z " fill="#2E4D84" transform="translate(250,225)"/>
<path d="M0 0 C0.66 0.33 1.32 0.66 2 1 C-2.02911392 6.54003164 -6.26731878 9.93737912 -13.0703125 11.46484375 C-14.70543921 11.70647179 -16.35282608 11.86273551 -18 12 C-14.28638882 8.91345262 -10.41216557 6.22715693 -6.3125 3.6875 C-5.73177734 3.31560547 -5.15105469 2.94371094 -4.55273438 2.56054688 C-3.07348 1.64221208 -1.53970802 0.81291542 0 0 Z " fill="#2D3B66" transform="translate(236,274)"/>
<path d="M0 0 C-3.53855651 2.95097333 -7.15147793 5.41966375 -11.125 7.75 C-12.67574219 8.67039062 -12.67574219 8.67039062 -14.2578125 9.609375 C-17 11 -17 11 -20 11 C-19.67 10.01 -19.34 9.02 -19 8 C-18.01 8 -17.02 8 -16 8 C-15.67 7.01 -15.34 6.02 -15 5 C-14.21625 4.896875 -13.4325 4.79375 -12.625 4.6875 C-9.66954819 4.22404978 -9.66954819 4.22404978 -8 1 C-5.07175348 0.02391783 -3.04386724 -0.08226668 0 0 Z " fill="#244678" transform="translate(297,270)"/>
<path d="M0 0 C-2.89870408 2.31896327 -5.94945685 4.08880989 -9.1953125 5.87890625 C-11.06655533 7.04134498 -12.61297667 8.34243676 -14.25 9.8125 C-15.1575 10.534375 -16.065 11.25625 -17 12 C-17.99 11.67 -18.98 11.34 -20 11 C-20 10.34 -20 9.68 -20 9 C-17.40607559 7.00966426 -14.50974818 5.45748055 -11.6875 3.8125 C-10.50897461 3.09803711 -10.50897461 3.09803711 -9.30664062 2.36914062 C-8.1706543 1.70108398 -8.1706543 1.70108398 -7.01171875 1.01953125 C-6.31522217 0.60807861 -5.61872559 0.19662598 -4.90112305 -0.22729492 C-3 -1 -3 -1 0 0 Z " fill="#2E3860" transform="translate(74,91)"/>
<path d="M0 0 C-2.23813753 1.56190881 -4.48769048 3.09883882 -6.75 4.625 C-7.38421875 5.07101563 -8.0184375 5.51703125 -8.671875 5.9765625 C-10.546875 7.2265625 -10.546875 7.2265625 -14 9 C-16.453125 8.2734375 -16.453125 8.2734375 -18 7 C-17.360625 6.71125 -16.72125 6.4225 -16.0625 6.125 C-13.84793921 5.17176549 -13.84793921 5.17176549 -13 3 C-11.68 3 -10.36 3 -9 3 C-9 2.34 -9 1.68 -9 1 C-5.47051709 -0.66670026 -3.71727674 -1.13583456 0 0 Z " fill="#265EA0" transform="translate(191,51)"/>
<path d="M0 0 C5.83254942 2.83673994 11.43049617 5.92953325 17 9.25 C17.77472656 9.70890625 18.54945313 10.1678125 19.34765625 10.640625 C21.2332245 11.75799878 23.11729302 12.8778143 25 14 C22 15 22 15 19.6875 14.03125 C4.5040448 5.38021157 4.5040448 5.38021157 0 2 C0 1.34 0 0.68 0 0 Z " fill="#284576" transform="translate(173,148)"/>
<path d="M0 0 C-0.0721875 1.07378906 -0.144375 2.14757812 -0.21875 3.25390625 C-0.31261864 4.69009642 -0.40636195 6.12629478 -0.5 7.5625 C-0.54769531 8.26697266 -0.59539063 8.97144531 -0.64453125 9.69726562 C-0.9313271 14.14260135 -1.04682842 18.54544659 -1 23 C-1.66 23 -2.32 23 -3 23 C-3 15.74 -3 8.48 -3 1 C-1 0 -1 0 0 0 Z " fill="#1C254B" transform="translate(57,101)"/>
<path d="M0 0 C3.89608498 1.48904175 7.59097018 3.24378713 11.3125 5.125 C12.38113281 5.66382812 13.44976562 6.20265625 14.55078125 6.7578125 C15.76314453 7.37269531 15.76314453 7.37269531 17 8 C16.67 8.99 16.34 9.98 16 11 C9.54801415 9.34564465 3.70204136 5.70204136 -1 1 C-0.67 0.67 -0.34 0.34 0 0 Z " fill="#2A5894" transform="translate(196,120)"/>
<path d="M0 0 C5.03214965 1.80011857 9.59261018 4.41256121 14.25 7 C15.49136719 7.67675781 15.49136719 7.67675781 16.7578125 8.3671875 C17.54414062 8.80289062 18.33046875 9.23859375 19.140625 9.6875 C19.85766602 10.08324219 20.57470703 10.47898437 21.31347656 10.88671875 C23 12 23 12 24 14 C20.18521479 13.4250767 17.5174492 12.3466473 14.25 10.3125 C13.39148438 9.77882813 12.53296875 9.24515625 11.6484375 8.6953125 C2.35574289 2.74689146 2.35574289 2.74689146 0 1 C0 0.67 0 0.34 0 0 Z " fill="#262842" transform="translate(103,248)"/>
<path d="M0 0 C-0.99 1.485 -0.99 1.485 -2 3 C-3.485 3.2165625 -3.485 3.2165625 -5 3.4375 C-5.99 3.623125 -6.98 3.80875 -8 4 C-8.433125 4.99 -8.433125 4.99 -8.875 6 C-9.24625 6.66 -9.6175 7.32 -10 8 C-12.69360735 8.69009775 -15.20515553 8.81968745 -18 9 C-14.81514226 6.23978996 -11.43863797 3.92258873 -7.875 1.6875 C-7.02679688 1.15511719 -6.17859375 0.62273437 -5.3046875 0.07421875 C-3 -1 -3 -1 0 0 Z " fill="#2C4C82" transform="translate(283,249)"/>
<path d="M0 0 C1.98 0.99 1.98 0.99 4 2 C3.01 2.495 3.01 2.495 2 3 C1.67 14.55 1.34 26.1 1 38 C0.67 38 0.34 38 0 38 C0 25.46 0 12.92 0 0 Z " fill="#DADCE5" transform="translate(81,126)"/>
<path d="M0 0 C0.33 0.99 0.66 1.98 1 3 C-4.16335173 7.19522328 -7.35415281 8.65021857 -14 9 C-9.7045025 5.25876024 -5.00099548 2.65848126 0 0 Z " fill="#305C8E" transform="translate(149,44)"/>
<path d="M0 0 C0.65226563 0.37253906 1.30453125 0.74507812 1.9765625 1.12890625 C7.39564609 4.18616762 7.39564609 4.18616762 13.4375 4.8125 C14.283125 4.544375 15.12875 4.27625 16 4 C16.99 4 17.98 4 19 4 C16.16569547 7.2542015 14.31392226 8.5206753 10 9 C10 8.34 10 7.68 10 7 C9.278125 6.731875 8.55625 6.46375 7.8125 6.1875 C5.00233617 5.00098638 2.51583443 3.72514361 0 2 C0 1.34 0 0.68 0 0 Z " fill="#32416B" transform="translate(181,223)"/>
<path d="M0 0 C2.31 0 4.62 0 7 0 C4.03009153 1.97993898 1.01080187 3.81014616 -2.0625 5.625 C-3.12597656 6.25664063 -4.18945312 6.88828125 -5.28515625 7.5390625 C-8 9 -8 9 -10 9 C-10 8.34 -10 7.68 -10 7 C-9.01 7 -8.02 7 -7 7 C-6.95875 6.38125 -6.9175 5.7625 -6.875 5.125 C-6.58625 4.42375 -6.2975 3.7225 -6 3 C-2.9375 1.75 -2.9375 1.75 0 1 C0 0.67 0 0.34 0 0 Z " fill="#285084" transform="translate(187,120)"/>
<path d="M0 0 C1.65 0 3.3 0 5 0 C0.50898372 4.04191465 -4.58984989 6.43674441 -10 9 C-9.67 7.68 -9.34 6.36 -9 5 C-8.01 5 -7.02 5 -6 5 C-6 4.34 -6 3.68 -6 3 C-4.02 2.67 -2.04 2.34 0 2 C0 1.34 0 0.68 0 0 Z " fill="#294B83" transform="translate(307,261)"/>
<path d="M0 0 C3.3 1.65 6.6 3.3 10 5 C10 5.66 10 6.32 10 7 C10.99 7.33 11.98 7.66 13 8 C13 8.66 13 9.32 13 10 C9.30123909 8.62712658 6.0485524 6.93644547 2.6875 4.875 C1.36298828 4.06675781 1.36298828 4.06675781 0.01171875 3.2421875 C-0.65214844 2.83226562 -1.31601562 2.42234375 -2 2 C-1.34 1.34 -0.68 0.68 0 0 Z " fill="#2D2E49" transform="translate(59,180)"/>
<path d="M0 0 C0.66 0.33 1.32 0.66 2 1 C-0.14327284 4.21490927 -1.69521128 5.14609413 -5 7 C-5.99 7.66 -6.98 8.32 -8 9 C-10.6875 9.125 -10.6875 9.125 -13 9 C-9.00302635 5.62755348 -4.72909821 2.28625278 0 0 Z " fill="#2C3E6E" transform="translate(215,216)"/>
<path d="M0 0 C3.79049707 1.42749981 7.27122456 3.16236542 10.8125 5.125 C12.27623047 5.93324219 12.27623047 5.93324219 13.76953125 6.7578125 C14.50558594 7.16773438 15.24164063 7.57765625 16 8 C16 8.66 16 9.32 16 10 C12.12763186 9.31387652 9.12741765 7.52450228 5.75 5.5625 C4.67234375 4.94503906 3.5946875 4.32757813 2.484375 3.69140625 C1.66453125 3.13324219 0.8446875 2.57507813 0 2 C0 1.34 0 0.68 0 0 Z " fill="#2D2E4A" transform="translate(74,190)"/>
<path d="M0 0 C0.66 0.33 1.32 0.66 2 1 C-0.64901491 4.7282432 -2.53252552 6.80140929 -7 8 C-9.8125 8.125 -9.8125 8.125 -12 8 C-8.20182235 4.77730382 -4.42608146 2.25479622 0 0 Z " fill="#325283" transform="translate(162,106)"/>
<path d="M0 0 C-2.81332973 3.30979968 -6.141943 5.1048141 -10 7 C-12.4375 6.75 -12.4375 6.75 -14 6 C-13.34 6 -12.68 6 -12 6 C-12 5.34 -12 4.68 -12 4 C-9.75 2.5 -9.75 2.5 -7 1 C-5.948125 0.38125 -5.948125 0.38125 -4.875 -0.25 C-3 -1 -3 -1 0 0 Z " fill="#234477" transform="translate(141,80)"/>
<path d="M0 0 C-2.28874173 1.33858524 -4.58069656 2.67101014 -6.875 4 C-7.52597656 4.3815625 -8.17695313 4.763125 -8.84765625 5.15625 C-13.7734375 8 -13.7734375 8 -16 8 C-14.69983239 4.09949718 -13.23996087 3.68856143 -9.6875 1.75 C-8.23923828 0.93789062 -8.23923828 0.93789062 -6.76171875 0.109375 C-3.86300189 -1.05503177 -2.83470023 -1.15811981 0 0 Z " fill="#273F70" transform="translate(248,230)"/>
<path d="M0 0 C-1.52280665 1.37534119 -3.06915027 2.72465281 -4.625 4.0625 C-5.48351562 4.81660156 -6.34203125 5.57070312 -7.2265625 6.34765625 C-10 8 -10 8 -13.3359375 7.74609375 C-14.21507812 7.49988281 -15.09421875 7.25367187 -16 7 C-15.443125 6.7525 -14.88625 6.505 -14.3125 6.25 C-11.87270809 5.01995826 -11.87270809 5.01995826 -9.5 3 C-4.05882353 -1.35294118 -4.05882353 -1.35294118 0 0 Z " fill="#2972C1" transform="translate(271,119)"/>
<path d="M0 0 C5.99291003 0.41330414 9.25036599 1.31903365 14 5 C13.67 5.66 13.34 6.32 13 7 C8.1725201 5.58707905 4.2837641 3.57025846 0 1 C0 0.67 0 0.34 0 0 Z " fill="#3378C1" transform="translate(249,83)"/>
<path d="M0 0 C0.66 0 1.32 0 2 0 C0.74539271 3.76382187 -0.52618612 4.25041838 -3.875 6.25 C-4.75929687 6.79140625 -5.64359375 7.3328125 -6.5546875 7.890625 C-9 9 -9 9 -12 8 C-9.82830512 5.60976978 -7.7918773 4.24194988 -4.875 2.875 C-2.24117764 1.71869993 -2.24117764 1.71869993 0 0 Z " fill="#222951" transform="translate(230,307)"/>
<path d="M0 0 C2.125 0.375 2.125 0.375 4 1 C4 1.66 4 2.32 4 3 C4.8971875 3.2165625 4.8971875 3.2165625 5.8125 3.4375 C7.56150404 3.8872439 9.28677023 4.42892341 11 5 C10.67 5.99 10.34 6.98 10 8 C6.04 6.02 2.08 4.04 -2 2 C-1.34 1.34 -0.68 0.68 0 0 Z " fill="#3265A4" transform="translate(239,145)"/>
<path d="M0 0 C-1.06478542 3.10000819 -1.95797481 3.97462191 -4.8203125 5.703125 C-5.91085938 6.21359375 -7.00140625 6.7240625 -8.125 7.25 C-9.22070312 7.77078125 -10.31640625 8.2915625 -11.4453125 8.828125 C-12.28835937 9.21484375 -13.13140625 9.6015625 -14 10 C-14 9.34 -14 8.68 -14 8 C-12.57421875 6.7109375 -12.57421875 6.7109375 -10.6875 5.375 C-10.07261719 4.92898437 -9.45773438 4.48296875 -8.82421875 4.0234375 C-7 3 -7 3 -4 3 C-4 2.34 -4 1.68 -4 1 C-2 0 -2 0 0 0 Z " fill="#223A6A" transform="translate(113,95)"/>
<path d="M0 0 C4.3177458 0.50797009 8.03302114 1.19682779 12 3 C12 4.32 12 5.64 12 7 C7.69235185 5.43358249 3.93828536 3.31663844 0 1 C0 0.67 0 0.34 0 0 Z " fill="#31568D" transform="translate(271,236)"/>
<path d="M0 0 C-0.639375 0.350625 -1.27875 0.70125 -1.9375 1.0625 C-6.18784344 3.75149279 -10.06643923 6.87200505 -14 10 C-14.66 9.67 -15.32 9.34 -16 9 C-14.71372289 7.82739389 -13.42080217 6.6620717 -12.125 5.5 C-11.40570313 4.8503125 -10.68640625 4.200625 -9.9453125 3.53125 C-8 2 -8 2 -6 2 C-6 1.34 -6 0.68 -6 0 C-3.50907189 -1.24546405 -2.58919267 -0.7767578 0 0 Z " fill="#242749" transform="translate(132,224)"/>
<path d="M0 0 C0.515625 0.2475 1.03125 0.495 1.5625 0.75 C1.5625 1.74 1.5625 2.73 1.5625 3.75 C0.82 3.894375 0.0775 4.03875 -0.6875 4.1875 C-3.36561274 4.68631867 -3.36561274 4.68631867 -5.625 5.4375 C-6.223125 5.540625 -6.82125 5.64375 -7.4375 5.75 C-8.0975 5.09 -8.7575 4.43 -9.4375 3.75 C-3.0375 -0.31153846 -3.0375 -0.31153846 0 0 Z " fill="#305C98" transform="translate(193.4375,89.25)"/>
<path d="M0 0 C8.19256018 1.17286652 8.19256018 1.17286652 11.5625 4.625 C12.2740625 5.800625 12.2740625 5.800625 13 7 C7.92990529 6.52467862 4.02506742 3.95637706 0 1 C0 0.67 0 0.34 0 0 Z " fill="#212B53" transform="translate(168,246)"/>
<path d="M0 0 C-0.74324341 2.39489543 -1.47057354 3.70777616 -3.69140625 4.93359375 C-5.44073501 5.67219923 -7.21934149 6.34049685 -9 7 C-9.66 6.34 -10.32 5.68 -11 5 C-9.54462432 4.16151196 -8.08559627 3.32936066 -6.625 2.5 C-5.81289062 2.0359375 -5.00078125 1.571875 -4.1640625 1.09375 C-2 0 -2 0 0 0 Z " fill="#334770" transform="translate(93,78)"/>
<path d="M0 0 C0 0.99 0 1.98 0 3 C-2.59688473 5.59688473 -4.10659265 6.92058601 -7.8125 7.25 C-8.534375 7.1675 -9.25625 7.085 -10 7 C-7.0094833 3.66442368 -4.06815373 1.84916079 0 0 Z " fill="#344975" transform="translate(144,117)"/>
<path d="M0 0 C-3.46741134 2.95749791 -6.86873527 5.07848152 -11 7 C-11 6.01 -11 5.02 -11 4 C-7.31866108 1.00356134 -4.79371252 -0.56396618 0 0 Z " fill="#28568F" transform="translate(329,251)"/>
<path d="M0 0 C3.96 1.98 7.92 3.96 12 6 C11.67 6.66 11.34 7.32 11 8 C7.90694578 7.39096941 5.80360238 6.40131197 3.25 4.5625 C2.63640625 4.13066406 2.0228125 3.69882813 1.390625 3.25390625 C0.70226562 2.63322266 0.70226562 2.63322266 0 2 C0 1.34 0 0.68 0 0 Z " fill="#26558F" transform="translate(282,212)"/>
<path d="M0 0 C3.9492568 0.55105909 7.34920174 1.38935371 11 3 C11 3.66 11 4.32 11 5 C4.6 4.50769231 4.6 4.50769231 1.5625 1.9375 C1.046875 1.298125 0.53125 0.65875 0 0 Z " fill="#1C5FAA" transform="translate(248,123)"/>
<path d="M0 0 C3.96 1.98 7.92 3.96 12 6 C11.34 6.66 10.68 7.32 10 8 C7.36 6.68 4.72 5.36 2 4 C2 3.34 2 2.68 2 2 C1.34 2 0.68 2 0 2 C0 1.34 0 0.68 0 0 Z " fill="#264F86" transform="translate(263,201)"/>
<path d="M0 0 C2.76276177 0.52268466 5.3260876 1.10869587 8 2 C8 2.66 8 3.32 8 4 C9.65 4.33 11.3 4.66 13 5 C12.67 5.99 12.34 6.98 12 8 C9.99743426 6.85865673 7.99800203 5.71181367 6 4.5625 C4.88625 3.92441406 3.7725 3.28632813 2.625 2.62890625 C1.75875 2.09136719 0.8925 1.55382812 0 1 C0 0.67 0 0.34 0 0 Z " fill="#2F497D" transform="translate(209,200)"/>
<path d="M0 0 C0.99 0.33 1.98 0.66 3 1 C3 6.94 3 12.88 3 19 C2.67 19 2.34 19 2 19 C1.93941406 18.04738281 1.87882812 17.09476563 1.81640625 16.11328125 C1.73261719 14.85902344 1.64882813 13.60476562 1.5625 12.3125 C1.48128906 11.07113281 1.40007812 9.82976562 1.31640625 8.55078125 C1.05508683 5.61819663 0.65201621 2.86558383 0 0 Z " fill="#2A6EAB" transform="translate(329,169)"/>
<path d="M0 0 C0.66 0.33 1.32 0.66 2 1 C-1.63 3.31 -5.26 5.62 -9 8 C-9.33 7.01 -9.66 6.02 -10 5 C-8.38007835 4.13624104 -6.75388139 3.28424146 -5.125 2.4375 C-4.22007812 1.96183594 -3.31515625 1.48617188 -2.3828125 0.99609375 C-1.20332031 0.50302734 -1.20332031 0.50302734 0 0 Z " fill="#242548" transform="translate(213,318)"/>
<path d="M0 0 C3.99500618 1.3697164 6.80009492 3.25722422 10 6 C8.53984709 5.71758359 7.08190207 5.42373386 5.625 5.125 C4.81289062 4.96257812 4.00078125 4.80015625 3.1640625 4.6328125 C1 4 1 4 -1 2 C-0.67 1.34 -0.34 0.68 0 0 Z " fill="#292F55" transform="translate(121,188)"/>
<path d="M0 0 C0.66 0.33 1.32 0.66 2 1 C1.01 2.485 1.01 2.485 0 4 C-0.99 4 -1.98 4 -3 4 C-3 4.99 -3 5.98 -3 7 C-4.32 7 -5.64 7 -7 7 C-7 7.66 -7 8.32 -7 9 C-7.66 8.67 -8.32 8.34 -9 8 C-6.14723863 5.06799526 -3.34920216 2.35684596 0 0 Z " fill="#1271D2" transform="translate(314,110)"/>
<path d="M0 0 C-0.125 1.875 -0.125 1.875 -1 4 C-4.0625 5.25 -4.0625 5.25 -7 6 C-7.66 5.34 -8.32 4.68 -9 4 C-2.25 0 -2.25 0 0 0 Z " fill="#354A76" transform="translate(255,264)"/>
<path d="M0 0 C1.65 0 3.3 0 5 0 C2.22719294 3.08089673 -0.06326356 4.68775452 -4 6 C-4 5.01 -4 4.02 -4 3 C-3.01 3 -2.02 3 -1 3 C-0.67 2.01 -0.34 1.02 0 0 Z " fill="#284E83" transform="translate(149,72)"/>
<path d="M0 0 C2.375 0.8125 2.375 0.8125 4.375 2.8125 C0.745 2.8125 -2.885 2.8125 -6.625 2.8125 C-2.625 -0.1875 -2.625 -0.1875 0 0 Z " fill="#3870A8" transform="translate(193.625,19.1875)"/>
<path d="M0 0 C3.91211733 1.15585285 6.8745041 2.35534962 10 5 C9.67 5.66 9.34 6.32 9 7 C6.03 5.35 3.06 3.7 0 2 C0 1.34 0 0.68 0 0 Z " fill="#232542" transform="translate(172,318)"/>
<path d="M0 0 C0 0.66 0 1.32 0 2 C-6.625 5.125 -6.625 5.125 -10 4 C-3.375 0 -3.375 0 0 0 Z " fill="#2A345F" transform="translate(228,281)"/>
<path d="M0 0 C0.33 0 0.66 0 1 0 C1.33 3.96 1.66 7.92 2 12 C1.01 12.495 1.01 12.495 0 13 C-0.66 12.67 -1.32 12.34 -2 12 C-1.34 8.04 -0.68 4.08 0 0 Z " fill="#25609D" transform="translate(330,238)"/>
<path d="M0 0 C0.33 0.99 0.66 1.98 1 3 C-1.31 3.66 -3.62 4.32 -6 5 C-6.33 4.34 -6.66 3.68 -7 3 C-2.25 0 -2.25 0 0 0 Z " fill="#30507A" transform="translate(265,258)"/>
<path d="M0 0 C-5.5 4 -5.5 4 -10 4 C-10 3.34 -10 2.68 -10 2 C-3.375 -1.125 -3.375 -1.125 0 0 Z " fill="#212444" transform="translate(201,298)"/>
<path d="M0 0 C6.52307692 0.61538462 6.52307692 0.61538462 8.9375 2.5625 C9.288125 3.036875 9.63875 3.51125 10 4 C9.67 4.66 9.34 5.32 9 6 C6.03 4.35 3.06 2.7 0 1 C0 0.67 0 0.34 0 0 Z " fill="#3163A3" transform="translate(271,166)"/>
<path d="M0 0 C0.99 0.33 1.98 0.66 3 1 C0.82575883 3.50037734 -0.73045798 4.43628586 -4 5 C-4.33 4.34 -4.66 3.68 -5 3 C-2.6875 1.4375 -2.6875 1.4375 0 0 Z " fill="#36649D" transform="translate(160,37)"/>
<path d="M0 0 C0 0.66 0 1.32 0 2 C-4.15267176 5.11450382 -4.15267176 5.11450382 -7.3125 4.6875 C-7.869375 4.460625 -8.42625 4.23375 -9 4 C-2.25 0 -2.25 0 0 0 Z " fill="#3A3D5D" transform="translate(208,292)"/>
<path d="M0 0 C3.82097239 0.53069061 6.06171403 1.49701566 9 4 C8.67 4.66 8.34 5.32 8 6 C6.66402348 5.19185349 5.331275 4.37836819 4 3.5625 C3.2575 3.11003906 2.515 2.65757812 1.75 2.19140625 C1.1725 1.79824219 0.595 1.40507812 0 1 C0 0.67 0 0.34 0 0 Z " fill="#1C1D3E" transform="translate(146,274)"/>
<path d="M0 0 C3.3 1.65 6.6 3.3 10 5 C7 6 7 6 3.875 4.75 C1 3 1 3 0 0 Z " fill="#2C2B44" transform="translate(138,268)"/>
<path d="M0 0 C0.66 0.33 1.32 0.66 2 1 C-0.21934164 4.32901247 -1.34683329 4.75023244 -5 6 C-5.66 5.34 -6.32 4.68 -7 4 C-1.7265625 0.77734375 -1.7265625 0.77734375 0 0 Z " fill="#394C75" transform="translate(215,216)"/>
<path d="M0 0 C6.52307692 1.47692308 6.52307692 1.47692308 8.9375 4.125 C9.288125 4.74375 9.63875 5.3625 10 6 C5.56909529 4.79157144 3.01887244 3.48331435 0 0 Z " fill="#2E4679" transform="translate(193,190)"/>
<path d="M0 0 C-3.96 1.98 -3.96 1.98 -8 4 C-7.67 2.68 -7.34 1.36 -7 0 C-4 -1 -4 -1 0 0 Z " fill="#264778" transform="translate(177,130)"/>
<path d="M0 0 C2.31 0.33 4.62 0.66 7 1 C6.67 1.99 6.34 2.98 6 4 C4.02 3.34 2.04 2.68 0 2 C0 1.34 0 0.68 0 0 Z " fill="#325E99" transform="translate(206,127)"/>
<path d="M0 0 C3.96 1.98 3.96 1.98 8 4 C7.34 4.66 6.68 5.32 6 6 C4.02 5.01 2.04 4.02 0 3 C0 2.01 0 1.02 0 0 Z " fill="#2A5990" transform="translate(197,91)"/>
<path d="M0 0 C0 0.66 0 1.32 0 2 C-0.99 2.66 -1.98 3.32 -3 4 C-3.33 4.99 -3.66 5.98 -4 7 C-4.66 7 -5.32 7 -6 7 C-5.6875 4.625 -5.6875 4.625 -5 2 C-2 0 -2 0 0 0 Z " fill="#2C2E4E" transform="translate(107,241)"/>
<path d="M0 0 C-3.96 1.98 -3.96 1.98 -8 4 C-8 3.01 -8 2.02 -8 1 C-4.59449725 -1.06762667 -4.18836538 -1.04709135 0 0 Z " fill="#32487A" transform="translate(248,230)"/>
<path d="M0 0 C1.32 0.33 2.64 0.66 4 1 C2.35 2.32 0.7 3.64 -1 5 C-1.66 4.67 -2.32 4.34 -3 4 C-2.01 2.68 -1.02 1.36 0 0 Z " fill="#232347" transform="translate(88,222)"/>
<path d="M0 0 C5.75 0.875 5.75 0.875 8 2 C7.67 2.99 7.34 3.98 7 5 C3.535 3.02 3.535 3.02 0 1 C0 0.67 0 0.34 0 0 Z " fill="#1F2850" transform="translate(113,185)"/>
<path d="M0 0 C3.77545388 1.09068668 6.47043472 1.9083091 9 5 C7.35 5 5.7 5 4 5 C3.67 4.01 3.34 3.02 3 2 C2.01 1.67 1.02 1.34 0 1 C0 0.67 0 0.34 0 0 Z " fill="#165EAA" transform="translate(278,168)"/>
<path d="M0 0 C3.96 1.98 3.96 1.98 8 4 C7.34 4.66 6.68 5.32 6 6 C1.125 3.375 1.125 3.375 0 0 Z " fill="#3079C0" transform="translate(243,48)"/>
<path d="M0 0 C1.98 0.66 3.96 1.32 6 2 C6 2.66 6 3.32 6 4 C3.36 3.67 0.72 3.34 -2 3 C-1.34 2.01 -0.68 1.02 0 0 Z " fill="#1F64B1" transform="translate(191,47)"/>
</svg>
